<svg width="251" height="320" viewBox="0 0 251 320" fill="none" xmlns="http://www.w3.org/2000/svg">
<g clip-path="url(#clip0_2016_13131)">
<path d="M137.75 60.9841C105.73 60.9841 52.6964 73.9508 52.6964 113.399C52.6964 147.002 97.7249 176.588 139.952 176.588C182.178 176.588 225.005 152.847 225.005 116.869C225.005 78.2675 181.178 60.9841 137.75 60.9841Z" fill="url(#paint0_linear_2016_13131)"/>
</g>
<g clip-path="url(#clip1_2016_13131)">
<path d="M227.626 140.67H168.596C165.777 135.923 172.913 130.939 178.376 134.262C176.525 125.165 192.032 121.13 195.908 129.357C200.578 119.944 218.639 121.842 216.701 134.816C222.251 131.731 229.828 135.528 227.626 140.67Z" fill="white"/>
</g>
<g clip-path="url(#clip2_2016_13131)">
<path d="M222.236 252.953H26.8811L32.3673 245.008L40.7213 243.413L47.3881 228.587L74.0526 220.07L80.8893 203.825L98.6938 195.742L98.8279 192.167L114.543 171.932L128.567 163.276L129.701 151.884L133.377 114.921L145.951 97.1298L151.351 96.1417L162.49 76.8303L176.919 127.77L189.241 135.38L195.882 174.135L197.004 180.687L207.553 189.659L222.236 252.953Z" fill="url(#paint1_linear_2016_13131)"/>
<path d="M128.567 163.276L127.941 170.269C122.745 173.084 124.061 180.413 120.465 183.577C116.922 186.694 112.839 185.083 109.58 189.279C105.445 194.601 107.555 205.093 98.9475 207.83C91.6741 210.142 85.0233 203.115 80.8893 203.825L98.6936 195.742L98.8279 192.167L114.543 171.932L128.567 163.276ZM195.882 174.135C193.967 176.164 188.354 176.429 184.22 174.072C179.449 171.353 175.275 159.816 166.947 158.273C158.398 156.69 153.377 165.367 145.781 162.315C139.675 159.861 138.946 148.947 129.701 151.884L133.377 114.921L145.951 97.1296L151.352 96.1416L162.49 76.8303L176.919 127.77L189.241 135.379L195.882 174.135L195.882 174.135Z" fill="white"/>
<path d="M222.236 253.255H26.8811C26.8215 253.254 26.763 253.24 26.7116 253.213C26.6602 253.186 26.6179 253.146 26.5889 253.099C26.5599 253.052 26.5454 252.999 26.5468 252.946C26.5482 252.892 26.5655 252.84 26.5969 252.794L32.0831 244.849C32.1069 244.815 32.1382 244.785 32.175 244.762C32.2119 244.738 32.2536 244.722 32.2977 244.714L40.4778 243.151L47.078 228.473C47.0957 228.434 47.1226 228.398 47.1567 228.369C47.1909 228.339 47.2316 228.317 47.2762 228.302L73.7946 219.833L80.5763 203.718C80.6059 203.648 80.6638 203.59 80.7386 203.556L98.3657 195.553L98.4934 192.157C98.4955 192.098 98.5165 192.042 98.5536 191.994L114.268 171.759C114.291 171.729 114.32 171.704 114.353 171.683L128.248 163.107L129.367 151.857L133.044 114.894C133.049 114.846 133.066 114.8 133.095 114.759L145.668 96.9676C145.693 96.9335 145.724 96.904 145.761 96.8811C145.798 96.8582 145.84 96.8422 145.884 96.8341L151.128 95.8748L162.194 76.6913C162.225 76.6372 162.274 76.5929 162.334 76.5642C162.393 76.5356 162.461 76.5239 162.529 76.5308C162.596 76.5378 162.659 76.5631 162.711 76.6033C162.762 76.6435 162.798 76.6966 162.815 76.7558L177.212 127.585L189.43 135.131C189.506 135.178 189.557 135.251 189.571 135.334L197.317 180.539L207.783 189.44C207.832 189.482 207.867 189.537 207.88 189.597L222.563 252.891C222.573 252.935 222.572 252.981 222.561 253.024C222.549 253.068 222.527 253.108 222.495 253.143C222.464 253.178 222.424 253.206 222.379 253.225C222.334 253.244 222.285 253.255 222.236 253.255ZM27.4834 252.652H221.824L207.247 189.813L196.775 180.906C196.721 180.86 196.685 180.799 196.674 180.733L188.932 135.555L176.73 128.019C176.663 127.977 176.615 127.915 176.595 127.844L162.383 77.67L151.648 96.2805C151.625 96.3204 151.593 96.3552 151.553 96.3822C151.513 96.4093 151.467 96.428 151.418 96.437L146.157 97.3995L133.703 115.021L130.034 151.911L128.9 163.302C128.896 163.347 128.881 163.39 128.856 163.428C128.831 163.466 128.797 163.499 128.756 163.524L114.782 172.149L99.1591 192.266L99.0281 195.752C99.0261 195.806 99.0079 195.858 98.9756 195.904C98.9432 195.949 98.8979 195.986 98.8443 196.011L81.1561 204.041L74.3655 220.177C74.3483 220.218 74.3214 220.255 74.2867 220.286C74.2519 220.316 74.2102 220.34 74.1645 220.354L47.6418 228.825L41.0312 243.526C41.0107 243.571 40.9779 243.612 40.936 243.643C40.894 243.675 40.8441 243.697 40.7906 243.707L32.576 245.277L27.4834 252.652Z" fill="#242D35"/>
<path d="M147.174 117.574C147.167 117.574 147.16 117.574 147.153 117.573C147.109 117.571 147.066 117.56 147.027 117.543C146.987 117.526 146.952 117.501 146.923 117.472C146.894 117.442 146.872 117.407 146.857 117.37C146.843 117.332 146.837 117.293 146.84 117.253L147.979 101.14C147.983 101.096 147.996 101.054 148.02 101.015L151.057 95.9969C151.1 95.9277 151.172 95.8765 151.257 95.8545C151.341 95.8325 151.432 95.8415 151.51 95.8795C151.587 95.9176 151.644 95.9816 151.67 96.0576C151.695 96.1336 151.686 96.2156 151.645 96.2857L148.642 101.245L147.508 117.292C147.502 117.368 147.465 117.44 147.403 117.492C147.341 117.545 147.259 117.574 147.174 117.574ZM176.92 127.77L184.705 157.213L180.812 130.174L176.92 127.77Z" fill="#242D35"/>
<path d="M184.704 157.514C184.629 157.514 184.556 157.491 184.497 157.449C184.438 157.407 184.397 157.348 184.379 157.283L176.595 127.84C176.579 127.781 176.584 127.719 176.608 127.662C176.632 127.605 176.675 127.556 176.731 127.522C176.786 127.487 176.852 127.469 176.92 127.469C176.987 127.469 177.053 127.487 177.109 127.522L181.001 129.926C181.08 129.974 181.132 130.051 181.144 130.136L185.036 157.174C185.043 157.217 185.039 157.26 185.025 157.301C185.011 157.342 184.987 157.38 184.956 157.412C184.924 157.444 184.886 157.47 184.842 157.488C184.799 157.505 184.752 157.514 184.704 157.514L184.704 157.514ZM177.447 128.461L183.553 151.557L180.5 130.347L177.447 128.461ZM98.5673 253.255C98.5096 253.255 98.4529 253.242 98.4027 253.216C98.3525 253.19 98.3105 253.153 98.2808 253.109C98.2511 253.064 98.2348 253.013 98.2334 252.961C98.2319 252.909 98.2454 252.858 98.2726 252.812L108.272 235.933C108.321 235.851 108.41 235.793 108.512 235.778L114.406 234.893L122.564 217.366C122.59 217.311 122.633 217.264 122.688 217.232C122.742 217.199 122.807 217.181 122.873 217.181H154.243L158.277 189.801C158.284 189.757 158.3 189.715 158.327 189.678L166.631 177.922L164.02 141.517C164.017 141.478 164.023 141.438 164.037 141.4C164.051 141.363 164.073 141.328 164.102 141.299C164.131 141.269 164.166 141.245 164.206 141.227C164.245 141.21 164.288 141.199 164.332 141.197C164.376 141.194 164.42 141.2 164.461 141.212C164.503 141.225 164.541 141.245 164.574 141.271C164.607 141.297 164.634 141.329 164.654 141.365C164.673 141.4 164.685 141.439 164.687 141.478L167.305 177.981C167.31 178.045 167.292 178.109 167.254 178.163L158.931 189.946L154.867 217.522C154.857 217.594 154.817 217.661 154.756 217.709C154.695 217.757 154.617 217.784 154.536 217.784H123.095L114.952 235.279C114.93 235.326 114.895 235.367 114.851 235.399C114.806 235.431 114.754 235.452 114.698 235.46L108.785 236.348L98.8627 253.096C98.8342 253.144 98.7916 253.184 98.7395 253.212C98.6874 253.24 98.628 253.255 98.5673 253.255ZM197.004 180.687L201.952 209.717L201.156 184.218L197.004 180.687Z" fill="#242D35"/>
<path d="M201.951 210.019C201.871 210.019 201.794 209.993 201.734 209.946C201.673 209.899 201.633 209.834 201.621 209.763L196.673 180.733C196.663 180.671 196.674 180.607 196.705 180.551C196.737 180.495 196.787 180.449 196.848 180.42C196.91 180.391 196.981 180.38 197.05 180.388C197.119 180.397 197.183 180.425 197.234 180.468L201.385 183.999C201.45 184.054 201.487 184.129 201.49 184.209L202.286 209.709C202.287 209.749 202.28 209.789 202.263 209.827C202.247 209.865 202.223 209.899 202.191 209.928C202.16 209.957 202.123 209.98 202.082 209.995C202.04 210.011 201.996 210.019 201.951 210.019ZM197.482 181.508L201.466 204.882L200.825 184.351L197.482 181.509L197.482 181.508ZM162.111 253.255C162.06 253.255 162.011 253.245 161.966 253.226C161.921 253.206 161.881 253.178 161.849 253.142C161.818 253.107 161.796 253.066 161.784 253.022C161.773 252.978 161.773 252.932 161.784 252.888L163.556 245.703C163.568 245.655 163.593 245.61 163.628 245.573C163.664 245.535 163.71 245.506 163.761 245.488L173.947 241.906L176.587 215.748C176.593 215.689 176.618 215.633 176.658 215.587L185.012 206.121C185.067 206.059 185.148 206.019 185.236 206.01C185.324 206.001 185.413 206.023 185.482 206.073C185.552 206.123 185.597 206.196 185.607 206.275C185.617 206.354 185.591 206.434 185.536 206.497L177.244 215.892L174.595 242.147C174.589 242.203 174.567 242.256 174.529 242.301C174.492 242.345 174.441 242.38 174.383 242.4L164.17 245.991L162.437 253.019C162.42 253.086 162.379 253.146 162.32 253.189C162.26 253.232 162.187 253.255 162.111 253.255ZM215.78 252.954L214.008 246.909L207.299 243.602L204.135 226.267L210.17 242.811L216.977 245.17L222.236 252.953L215.78 252.954Z" fill="#242D35"/>
<path d="M215.78 253.255C215.706 253.255 215.634 253.233 215.576 253.193C215.517 253.152 215.475 253.095 215.456 253.031L213.721 247.112L207.138 243.867C207.094 243.845 207.055 243.814 207.026 243.776C206.997 243.739 206.977 243.696 206.969 243.651L203.804 226.316C203.791 226.241 203.809 226.164 203.855 226.101C203.901 226.037 203.973 225.992 204.055 225.974C204.137 225.956 204.223 225.966 204.297 226.003C204.371 226.04 204.426 226.101 204.452 226.173L210.439 242.581L217.098 244.888C217.167 244.912 217.225 244.956 217.263 245.013L222.521 252.796C222.552 252.842 222.569 252.894 222.57 252.948C222.571 253.001 222.557 253.054 222.528 253.101C222.498 253.148 222.456 253.186 222.405 253.214C222.353 253.241 222.295 253.255 222.236 253.255L215.78 253.255V253.255ZM207.603 243.408L214.168 246.645C214.249 246.685 214.308 246.753 214.331 246.832L216.038 252.652L221.64 252.652L216.751 245.414L210.05 243.092C210.004 243.076 209.962 243.051 209.928 243.019C209.894 242.986 209.868 242.947 209.852 242.905L205.166 230.059L207.603 243.408V243.408ZM38.9486 247.439C38.8932 247.439 38.8387 247.427 38.79 247.403C38.7412 247.379 38.6997 247.345 38.6692 247.303C38.6388 247.262 38.6203 247.214 38.6154 247.164C38.6105 247.115 38.6193 247.065 38.6412 247.019L40.4132 243.293C40.4497 243.222 40.5157 243.166 40.5971 243.138C40.6785 243.11 40.7689 243.111 40.849 243.142C40.9291 243.173 40.9927 243.231 41.0262 243.304C41.0597 243.376 41.0604 243.458 41.0283 243.531L39.2562 247.256C39.2304 247.31 39.1875 247.357 39.1329 247.389C39.0782 247.422 39.0141 247.439 38.9486 247.439ZM67.5557 238.011C67.5027 238.011 67.4505 238 67.4033 237.978C67.3562 237.957 67.3154 237.925 67.2844 237.886C67.2534 237.848 67.233 237.803 67.225 237.756C67.217 237.708 67.2215 237.66 67.2383 237.615L73.7359 219.976C73.7498 219.938 73.7717 219.904 73.8004 219.874C73.8291 219.844 73.8641 219.819 73.9034 219.801C73.9426 219.784 73.9854 219.773 74.0292 219.77C74.073 219.767 74.117 219.772 74.1587 219.785C74.2004 219.797 74.239 219.817 74.2722 219.843C74.3054 219.869 74.3326 219.9 74.3523 219.936C74.3721 219.971 74.3838 220.009 74.387 220.049C74.3902 220.088 74.3847 220.128 74.3709 220.166L67.8732 237.805C67.8511 237.865 67.8085 237.917 67.7516 237.954C67.6946 237.991 67.6262 238.011 67.5559 238.011L67.5557 238.011ZM98.6941 195.741L98.5653 221.991L94.3937 197.694L98.6941 195.741Z" fill="#242D35"/>
<path d="M98.565 222.292C98.4852 222.292 98.408 222.266 98.3474 222.219C98.2868 222.172 98.2468 222.108 98.2346 222.037L94.063 197.74C94.0522 197.677 94.0639 197.613 94.0962 197.556C94.1286 197.499 94.18 197.453 94.2431 197.425L98.5437 195.472C98.5948 195.449 98.6517 195.438 98.7089 195.44C98.7661 195.442 98.8217 195.458 98.8703 195.485C98.919 195.512 98.9591 195.55 98.9869 195.595C99.0146 195.64 99.0291 195.691 99.0288 195.742L98.8998 221.992C98.8995 222.072 98.864 222.148 98.8013 222.204C98.7385 222.26 98.6535 222.292 98.565 222.292ZM94.7613 197.864L98.2493 218.18L98.3572 196.232L94.7613 197.864ZM127.301 177.723C127.255 177.723 127.209 177.714 127.167 177.698C127.125 177.681 127.087 177.657 127.055 177.626C127.024 177.596 127 177.559 126.985 177.52C126.97 177.481 126.964 177.439 126.968 177.397L128.233 163.252C128.237 163.212 128.249 163.174 128.269 163.139C128.289 163.103 128.316 163.072 128.35 163.046C128.383 163.021 128.422 163.001 128.464 162.989C128.506 162.977 128.55 162.972 128.594 162.976C128.682 162.982 128.764 163.02 128.821 163.081C128.879 163.142 128.907 163.221 128.9 163.3L127.634 177.446C127.628 177.521 127.59 177.592 127.528 177.643C127.466 177.694 127.385 177.723 127.301 177.723H127.301ZM232.032 253.255H16.5617C16.473 253.255 16.3879 253.223 16.3251 253.167C16.2624 253.11 16.2271 253.034 16.2271 252.954C16.2271 252.874 16.2624 252.797 16.3251 252.741C16.3879 252.684 16.473 252.652 16.5617 252.652H232.032C232.12 252.652 232.205 252.684 232.268 252.741C232.331 252.797 232.366 252.874 232.366 252.954C232.366 253.034 232.331 253.11 232.268 253.167C232.205 253.223 232.12 253.255 232.032 253.255Z" fill="#242D35"/>
</g>
<g clip-path="url(#clip3_2016_13131)">
<path d="M154.103 87.8478H92.5141C90.4014 83.4424 98.5321 75.2691 108.071 80.718C111.72 66.2843 138.225 66.4582 140.594 82.6888C147.508 76.3126 156.151 83.0945 154.103 87.8478Z" fill="white"/>
</g>
<g clip-path="url(#clip4_2016_13131)">
<path d="M189.875 74.7176L181.205 81.0689L139.225 111.821L133.173 97.1636L124.695 76.6271L189.875 74.7176Z" fill="url(#paint2_linear_2016_13131)"/>
<path d="M139.225 112.123C139.157 112.123 139.09 112.104 139.034 112.069C138.978 112.034 138.936 111.984 138.912 111.927L124.382 76.7327C124.364 76.6878 124.357 76.6396 124.363 76.5921C124.369 76.5445 124.388 76.499 124.418 76.4592C124.447 76.4195 124.487 76.3866 124.533 76.3634C124.579 76.3402 124.631 76.3273 124.684 76.3257L189.864 74.4161C189.934 74.4137 190.003 74.4314 190.061 74.4666C190.119 74.5019 190.164 74.5529 190.188 74.6123C190.238 74.7338 190.197 74.8704 190.085 74.952L139.435 112.055C139.375 112.099 139.3 112.123 139.225 112.123ZM125.17 76.9152L139.375 111.322L188.894 75.0482L125.17 76.9152Z" fill="#242D35"/>
<path d="M181.205 81.0689L139.225 111.821L133.173 97.1636C135.851 99.0429 139.599 99.6839 142.817 98.6764C146.319 97.5814 149.04 94.8017 152.671 94.132C154.3 93.8334 156.031 93.9797 157.587 93.4533C159.365 92.8515 160.644 91.4699 161.989 90.2618C167.187 85.5997 174.168 83.0734 181.205 81.0689Z" fill="#242D35"/>
<path d="M139.225 112.123C139.157 112.123 139.09 112.104 139.034 112.069C138.978 112.034 138.936 111.984 138.912 111.927L132.86 97.2691C132.835 97.2076 132.833 97.1403 132.853 97.0773C132.874 97.0144 132.917 96.9593 132.976 96.9204C133.034 96.8815 133.105 96.861 133.178 96.8619C133.25 96.8628 133.321 96.885 133.378 96.9254C136.004 98.768 139.666 99.3437 142.708 98.3914C144.237 97.9131 145.652 97.083 147.021 96.2803C148.75 95.2663 150.537 94.2177 152.604 93.8364C153.272 93.7141 153.956 93.6642 154.618 93.6159C155.625 93.5426 156.576 93.4732 157.47 93.1708C158.895 92.6885 160.021 91.6461 161.11 90.6378C161.324 90.4394 161.538 90.2413 161.754 90.0478C167.159 85.1998 174.569 82.643 181.104 80.7813C181.178 80.7604 181.258 80.7634 181.33 80.7899C181.402 80.8164 181.461 80.8647 181.498 80.9265C181.535 80.9882 181.546 81.0596 181.531 81.1284C181.516 81.1972 181.475 81.259 181.415 81.3033L139.435 112.055C139.375 112.099 139.3 112.123 139.225 112.123ZM133.859 97.9611L139.375 111.322L179.605 81.8523C173.591 83.6515 167.068 86.1322 162.224 90.476C162.011 90.6689 161.798 90.8633 161.588 91.0592C160.448 92.1147 159.269 93.2061 157.704 93.7358C156.723 94.0678 155.68 94.1438 154.672 94.2173C154.029 94.2642 153.365 94.3126 152.737 94.4277C150.794 94.786 149.138 95.7576 147.385 96.7863C145.983 97.6087 144.533 98.4593 142.926 98.9615C140.008 99.8754 136.559 99.4749 133.859 97.9612L133.859 97.9611Z" fill="#242D35"/>
<path d="M161.038 161.182L125.782 75.793C125.517 75.1517 124.727 74.8258 124.017 75.065L124.017 75.0651C123.307 75.3043 122.947 76.0181 123.212 76.6594L158.467 162.048C158.732 162.69 159.522 163.016 160.232 162.776L160.232 162.776C160.942 162.537 161.302 161.823 161.038 161.182Z" fill="white"/>
<path d="M159.751 163.157C159.51 163.157 159.27 163.11 159.044 163.017C158.84 162.933 158.656 162.814 158.503 162.666C158.35 162.518 158.232 162.344 158.154 162.154L122.899 76.7647C122.82 76.5752 122.784 76.3734 122.792 76.1711C122.8 75.9688 122.852 75.7699 122.946 75.5859C123.038 75.4015 123.17 75.2356 123.334 75.0976C123.498 74.9596 123.691 74.8524 123.901 74.7822C124.782 74.4849 125.766 74.8914 126.095 75.6874L161.35 161.076C161.679 161.873 161.229 162.762 160.348 163.059C160.154 163.125 159.952 163.157 159.751 163.157ZM124.496 75.2882C124.376 75.2882 124.253 75.3072 124.134 75.3475C123.874 75.435 123.668 75.6086 123.553 75.8365C123.438 76.0644 123.428 76.3191 123.525 76.5538L158.78 161.943C158.827 162.059 158.899 162.164 158.992 162.255C159.085 162.345 159.197 162.417 159.321 162.468C159.445 162.52 159.579 162.548 159.715 162.553C159.851 162.557 159.987 162.537 160.115 162.494C160.373 162.406 160.581 162.231 160.696 162.004C160.81 161.778 160.82 161.52 160.724 161.287L125.469 75.8983C125.395 75.7192 125.262 75.5648 125.088 75.4558C124.914 75.3467 124.708 75.2883 124.496 75.2882Z" fill="#242D35"/>
</g>
<g clip-path="url(#clip5_2016_13131)">
<path d="M57.374 242.447L55.7168 248.349L65.8345 249.373L69.1489 240.4L57.374 242.447Z" fill="url(#paint3_linear_2016_13131)"/>
<path d="M65.8347 249.674C65.8223 249.674 65.8099 249.674 65.7972 249.672L55.6797 248.649C55.6322 248.644 55.5864 248.63 55.5454 248.608C55.5044 248.586 55.4692 248.556 55.442 248.521C55.4148 248.486 55.3963 248.445 55.3879 248.403C55.3794 248.36 55.3811 248.317 55.3928 248.275L57.05 242.372C57.0656 242.317 57.0984 242.266 57.1446 242.227C57.1909 242.188 57.2485 242.161 57.3109 242.15L69.0859 240.104C69.1432 240.094 69.2024 240.098 69.2576 240.115C69.3129 240.132 69.3622 240.162 69.4006 240.201C69.4391 240.241 69.4654 240.289 69.477 240.34C69.4885 240.392 69.4848 240.446 69.4663 240.496L66.152 249.468C66.1298 249.528 66.0872 249.58 66.0303 249.617C65.9735 249.654 65.9051 249.674 65.835 249.674H65.8347ZM56.135 248.088L65.6028 249.046L68.6509 240.794L57.646 242.707L56.135 248.088V248.088Z" fill="#242D35"/>
<path d="M139.013 208.092L138.141 212.578L127.587 213.09L128.459 206.006L139.013 208.092Z" fill="url(#paint4_linear_2016_13131)"/>
<path d="M127.587 213.391C127.54 213.391 127.494 213.382 127.451 213.365C127.408 213.348 127.37 213.322 127.338 213.291C127.307 213.259 127.283 213.222 127.269 213.181C127.255 213.141 127.25 213.098 127.255 213.056L128.127 205.973C128.133 205.931 128.147 205.89 128.171 205.854C128.195 205.817 128.227 205.786 128.265 205.761C128.303 205.737 128.346 205.719 128.392 205.711C128.438 205.702 128.485 205.702 128.531 205.711L139.085 207.797C139.169 207.814 139.243 207.859 139.291 207.924C139.339 207.988 139.358 208.067 139.343 208.144L138.47 212.63C138.457 212.697 138.419 212.759 138.363 212.804C138.306 212.849 138.235 212.876 138.159 212.879L127.605 213.391C127.599 213.391 127.593 213.391 127.588 213.391H127.587ZM128.751 206.373L127.963 212.769L137.858 212.29L138.629 208.325L128.751 206.373ZM56.4233 245.833C58.2155 245.833 59.2928 247.562 61.0809 247.72C62.869 247.877 65.2501 246.744 66.8069 246.74C65.8345 249.372 66.7167 249.802 66.3033 251.057C66.1228 251.605 65.7511 252.085 65.2435 252.427C64.7359 252.769 64.1195 252.953 63.4862 252.953H42.5341C41.7795 252.953 41.2736 252.254 41.5772 251.631L41.7952 251.183C42.202 250.348 42.8646 249.636 43.7051 249.129C44.5455 248.622 45.5288 248.342 46.5394 248.322L49.3611 248.277C50.944 248.252 52.4682 247.746 53.7015 246.851C54.4362 246.317 55.3883 245.833 56.4233 245.833V245.833Z" fill="#242D35"/>
<path d="M63.4862 253.255H42.5341C42.0663 253.255 41.6345 253.044 41.3789 252.691C41.1233 252.337 41.0828 251.896 41.2711 251.509L41.4891 251.062C42.3684 249.257 44.3479 248.064 46.532 248.021L49.3553 247.975C50.8485 247.952 52.3176 247.469 53.4918 246.616C54.4832 245.896 55.4693 245.531 56.4232 245.531C57.4589 245.531 58.2563 246.035 59.0273 246.522C59.7027 246.948 60.3406 247.351 61.1135 247.419C62.039 247.5 63.1717 247.203 64.2655 246.914C65.1907 246.67 66.0647 246.44 66.8059 246.438H66.8069C66.8599 246.438 66.9121 246.449 66.9593 246.471C67.0065 246.493 67.0472 246.525 67.0782 246.563C67.1091 246.602 67.1295 246.647 67.1374 246.694C67.1454 246.742 67.1408 246.79 67.1241 246.835C66.5612 248.359 66.6414 249.088 66.7125 249.73C66.761 250.171 66.8068 250.587 66.6237 251.143C66.2138 252.386 64.9235 253.255 63.486 253.255L63.4862 253.255ZM56.4232 246.134C55.6256 246.134 54.7806 246.455 53.9111 247.086C52.6217 248.022 51.008 248.553 49.367 248.579L46.5452 248.624C44.6212 248.662 42.8763 249.714 42.1013 251.305L41.8833 251.752C41.7848 251.954 41.805 252.176 41.9388 252.361C42.0725 252.546 42.2895 252.652 42.5341 252.652H63.4862C64.63 252.652 65.6566 251.961 65.9829 250.971C66.1287 250.529 66.0928 250.203 66.0473 249.79C65.9803 249.183 65.8983 248.44 66.3408 247.074C65.7822 247.143 65.1323 247.315 64.4533 247.493C63.2981 247.798 62.1023 248.113 61.0486 248.02C60.1012 247.936 59.3603 247.469 58.644 247.016C57.9261 246.563 57.2482 246.134 56.4234 246.134L56.4232 246.134ZM127.784 211.488C127.54 212.668 127.173 213.611 126.748 214.556C126.323 215.5 125.603 217.448 128.416 217.448H151.335C152.002 217.448 152.436 216.816 152.14 216.278L151.518 215.148C151.212 214.591 150.761 214.11 150.205 213.744C149.648 213.378 149.002 213.138 148.321 213.046L143.193 212.349C141.811 212.161 140.558 211.566 139.502 210.739C139.265 210.554 138.974 210.424 138.621 210.424C137.41 210.424 134.925 211.545 133.616 211.545C131.523 211.545 128.187 209.548 127.784 211.488L127.784 211.488Z" fill="#242D35"/>
<path d="M151.335 217.75H128.416C127.382 217.75 126.668 217.495 126.295 216.994C125.733 216.241 126.107 215.177 126.438 214.442C126.817 213.6 127.203 212.653 127.456 211.433C127.542 211.017 127.753 210.714 128.084 210.533C128.839 210.12 130.019 210.443 131.268 210.785C132.091 211.01 132.942 211.243 133.616 211.243C134.229 211.243 135.183 210.957 136.105 210.681C137.066 210.394 137.974 210.122 138.621 210.122C139.021 210.122 139.391 210.253 139.721 210.511C140.793 211.35 142.011 211.883 143.243 212.05L148.371 212.747C149.105 212.847 149.802 213.105 150.401 213.5C151.001 213.894 151.487 214.413 151.817 215.013L152.439 216.143C152.533 216.313 152.577 216.501 152.567 216.69C152.557 216.879 152.494 217.063 152.382 217.223C152.272 217.385 152.118 217.518 151.935 217.61C151.752 217.702 151.545 217.75 151.335 217.749V217.75ZM128.113 211.544C127.849 212.816 127.45 213.798 127.057 214.669C126.9 215.019 126.421 216.083 126.849 216.657C127.091 216.982 127.619 217.146 128.416 217.146H151.336C151.432 217.147 151.526 217.125 151.61 217.083C151.694 217.041 151.764 216.98 151.814 216.906C151.866 216.832 151.895 216.748 151.9 216.662C151.904 216.575 151.884 216.489 151.84 216.412L151.218 215.282C150.936 214.769 150.521 214.325 150.008 213.988C149.495 213.65 148.899 213.43 148.272 213.344L143.143 212.647C141.786 212.462 140.451 211.881 139.282 210.967C139.075 210.804 138.858 210.725 138.621 210.725C138.081 210.725 137.183 210.994 136.315 211.254C135.343 211.545 134.337 211.847 133.616 211.847C132.843 211.847 131.944 211.601 131.074 211.362C130.02 211.074 128.93 210.776 128.431 211.049C128.267 211.139 128.163 211.3 128.113 211.544Z" fill="#242D35"/>
<path d="M73.183 167.105C74.9274 166.594 76.2794 165.059 77.5004 164.823C78.7214 164.587 78.7462 166.948 78.7462 166.948L74.8402 168.247L73.183 167.105V167.105Z" fill="url(#paint5_linear_2016_13131)"/>
<path d="M74.84 168.548C74.7676 168.548 74.6964 168.527 74.6372 168.486L72.98 167.345C72.9315 167.312 72.894 167.267 72.8716 167.216C72.8492 167.165 72.8428 167.109 72.853 167.054C72.8633 167 72.8898 166.95 72.9297 166.908C72.9696 166.866 73.0214 166.835 73.0795 166.818C73.9262 166.57 74.6773 166.064 75.4035 165.575C76.1047 165.102 76.7672 164.656 77.4302 164.528C77.7478 164.466 78.0452 164.528 78.2901 164.705C79.0412 165.247 79.0787 166.773 79.0805 166.945C79.0812 167.008 79.0605 167.068 79.0213 167.12C78.9822 167.171 78.9264 167.21 78.8617 167.231L74.9557 168.53C74.9187 168.542 74.8796 168.548 74.8402 168.548L74.84 168.548ZM73.855 167.188L74.8967 167.906L78.403 166.74C78.3655 166.19 78.2074 165.417 77.8719 165.175C77.7843 165.112 77.6911 165.094 77.5701 165.118C77.05 165.218 76.4445 165.626 75.8034 166.058C75.2196 166.451 74.5738 166.886 73.855 167.188V167.188Z" fill="#242D35"/>
<path d="M135.533 129.57C137.015 128.843 138.708 127.931 139.493 127.341C140.278 126.75 141.223 125.972 141.957 125.57C143.789 124.566 144.756 125.323 146.765 124.537C148.499 123.858 148.597 125.127 147.321 125.747C148.411 125.609 148.695 126.121 148.193 126.869C149.087 126.75 149.611 127.478 148.956 128.01C150.036 128.128 149.78 128.99 148.035 129.928C144.835 131.65 143.08 131.31 141.695 132.034C139.754 133.047 139.1 133.598 137.399 135.211C135.797 133.647 134.977 132.02 135.533 129.57Z" fill="url(#paint6_linear_2016_13131)"/>
<path d="M137.4 135.513H137.397C137.351 135.512 137.306 135.504 137.264 135.487C137.223 135.47 137.185 135.446 137.154 135.416C135.267 133.574 134.684 131.808 135.206 129.509C135.216 129.466 135.236 129.426 135.265 129.39C135.294 129.355 135.331 129.326 135.374 129.305C136.744 128.633 138.489 127.703 139.279 127.109C139.461 126.972 139.651 126.825 139.846 126.675C140.51 126.163 141.197 125.633 141.783 125.312C142.836 124.735 143.646 124.699 144.43 124.664C145.081 124.634 145.754 124.604 146.632 124.26C147.942 123.747 148.348 124.271 148.441 124.444C148.61 124.757 148.497 125.152 148.184 125.498C148.41 125.573 148.547 125.691 148.63 125.804C148.727 125.938 148.838 126.194 148.704 126.587C149.059 126.659 149.35 126.851 149.494 127.127C149.614 127.357 149.612 127.608 149.501 127.84C149.791 127.977 149.888 128.179 149.919 128.313C150.047 128.859 149.439 129.524 148.206 130.187C146.212 131.26 144.778 131.549 143.627 131.78C142.919 131.922 142.36 132.035 141.863 132.294C140.003 133.266 139.364 133.786 137.642 135.419C137.611 135.449 137.573 135.472 137.531 135.488C137.49 135.504 137.445 135.513 137.4 135.513ZM135.831 129.767C135.425 131.713 135.887 133.19 137.407 134.767C138.999 133.267 139.687 132.734 141.528 131.772C142.114 131.466 142.747 131.339 143.481 131.191C144.586 130.969 145.961 130.692 147.864 129.669C148.997 129.059 149.297 128.576 149.265 128.438C149.254 128.392 149.131 128.332 148.916 128.309C148.853 128.302 148.792 128.279 148.743 128.242C148.694 128.205 148.657 128.156 148.638 128.1C148.618 128.045 148.617 127.986 148.634 127.93C148.651 127.874 148.685 127.824 148.733 127.785C148.829 127.707 148.976 127.552 148.889 127.383C148.816 127.242 148.587 127.121 148.242 127.167C148.179 127.175 148.115 127.167 148.057 127.144C147.999 127.121 147.95 127.083 147.915 127.035C147.88 126.988 147.86 126.932 147.859 126.875C147.858 126.817 147.874 126.761 147.907 126.712C148.114 126.404 148.125 126.209 148.071 126.136C148.016 126.06 147.798 125.991 147.367 126.045C147.29 126.056 147.21 126.041 147.144 126.003C147.077 125.966 147.027 125.908 147.003 125.84C146.979 125.773 146.981 125.7 147.011 125.635C147.04 125.569 147.093 125.515 147.162 125.481C147.723 125.208 147.904 124.827 147.839 124.707C147.803 124.639 147.515 124.572 146.898 124.813C145.908 125.201 145.14 125.236 144.463 125.266C143.698 125.301 143.038 125.33 142.13 125.828C141.591 126.123 140.924 126.637 140.28 127.134C140.083 127.285 139.891 127.434 139.707 127.572C138.728 128.308 136.641 129.366 135.831 129.767V129.767Z" fill="#242D35"/>
<path d="M131.752 131.413C133.061 130.854 135.533 129.57 135.533 129.57L140.583 136.942L135.71 139.618L131.425 135.103L131.752 131.413L131.752 131.413Z" fill="white"/>
<path d="M135.71 139.92C135.662 139.92 135.614 139.911 135.57 139.893C135.526 139.875 135.487 139.848 135.456 139.815L131.171 135.299C131.142 135.269 131.12 135.234 131.107 135.196C131.093 135.158 131.088 135.119 131.092 135.079L131.419 131.39C131.423 131.337 131.443 131.286 131.477 131.242C131.51 131.198 131.556 131.164 131.609 131.141C132.891 130.593 135.342 129.321 135.367 129.309C135.442 129.27 135.531 129.258 135.615 129.278C135.7 129.297 135.772 129.345 135.818 129.412L140.868 136.784C140.891 136.818 140.906 136.856 140.913 136.895C140.92 136.934 140.919 136.974 140.908 137.013C140.898 137.052 140.879 137.088 140.853 137.12C140.828 137.153 140.795 137.18 140.757 137.201L135.884 139.877C135.831 139.905 135.771 139.92 135.71 139.92V139.92ZM131.769 135.002L135.779 139.227L140.122 136.843L135.419 129.977C134.767 130.312 133.14 131.139 132.07 131.61L131.769 135.002L131.769 135.002Z" fill="#242D35"/>
<path d="M72.2889 133.657C76.0395 132.496 78.3508 132.22 81.6869 131.886C85.0231 131.551 95.8386 134.463 95.8386 134.463L108.049 164.922L86.8546 170.038L70.8823 142.255L72.2887 133.657H72.2889Z" fill="white"/>
<path d="M86.8548 170.34C86.7936 170.34 86.7335 170.325 86.6812 170.296C86.6289 170.267 86.5863 170.226 86.5581 170.177L70.5856 142.394C70.5532 142.338 70.5413 142.274 70.5516 142.211L71.9581 133.613C71.967 133.558 71.9925 133.506 72.0317 133.464C72.0708 133.421 72.1222 133.389 72.1802 133.371C75.9061 132.218 78.2435 131.927 81.65 131.586C85.0132 131.246 95.4899 134.054 95.9342 134.174C96.0357 134.202 96.1169 134.271 96.153 134.361L108.364 164.819C108.38 164.859 108.386 164.9 108.383 164.942C108.38 164.984 108.367 165.024 108.346 165.062C108.324 165.099 108.295 165.131 108.258 165.157C108.222 165.183 108.181 165.203 108.136 165.213L86.9412 170.329C86.9131 170.336 86.884 170.34 86.8548 170.339V170.34ZM71.2289 142.203L87.0278 169.684L107.611 164.716L95.5818 134.71C94.225 134.351 84.7367 131.884 81.7237 132.186C78.4324 132.516 76.2105 132.777 72.5897 133.883L71.2289 142.203Z" fill="#242D35"/>
<path d="M80.6851 130.764L77.4496 126.547C80.6401 125.015 80.7986 121.929 80.4029 119.848C80.9748 119.608 81.6015 119.255 81.4472 118.683C81.3586 118.355 80.8586 118.103 79.9358 118.249C79.1425 116.387 75.9841 111.615 71.1115 112.643C66.0745 113.705 65.9436 120.553 65.9436 120.553L69.0181 123.504L71.7001 132.417L79.8117 133.273L80.6851 130.765V130.764Z" fill="url(#paint7_linear_2016_13131)"/>
<path d="M79.8118 133.575C79.7989 133.575 79.7858 133.574 79.7728 133.573L71.6613 132.717C71.5951 132.71 71.5326 132.685 71.482 132.646C71.4315 132.606 71.3951 132.554 71.3776 132.496L68.7174 123.655L65.7001 120.759C65.6404 120.702 65.6079 120.626 65.6093 120.547C65.6148 120.258 65.8047 113.452 71.0354 112.349C75.9323 111.315 79.169 115.824 80.1481 117.918C81.1767 117.825 81.6664 118.22 81.7722 118.612C81.9737 119.36 81.2324 119.806 80.772 120.021C81.03 121.605 81.1196 124.904 77.9327 126.646L80.9602 130.592C81.0191 130.669 81.0351 130.766 81.0044 130.855L80.1309 133.363C80.1096 133.425 80.0671 133.478 80.0098 133.516C79.9525 133.554 79.8832 133.575 79.8121 133.575H79.8118ZM71.9634 132.141L79.5755 132.944L80.3171 130.815L77.1746 126.719C77.1477 126.684 77.1294 126.644 77.1208 126.602C77.1121 126.56 77.1134 126.517 77.1246 126.476C77.1357 126.434 77.1564 126.396 77.1854 126.362C77.2143 126.328 77.2508 126.301 77.2924 126.281C80.4773 124.751 80.4017 121.626 80.0732 119.899C80.0608 119.834 80.0725 119.766 80.1066 119.708C80.1407 119.649 80.1952 119.602 80.2618 119.574C81.1229 119.213 81.1741 118.946 81.1222 118.754C81.0834 118.611 80.7422 118.427 79.9935 118.546C79.9171 118.558 79.8383 118.546 79.7707 118.512C79.7032 118.477 79.651 118.423 79.6233 118.357C78.8406 116.519 75.8007 111.963 71.1874 112.936C66.8198 113.857 66.3327 119.536 66.283 120.438L69.2614 123.297C69.299 123.333 69.3261 123.377 69.3405 123.425L71.9634 132.141Z" fill="#242D35"/>
<path d="M76.7286 119.006C77.7206 118.702 78.3724 118.051 78.1845 117.552C77.9965 117.053 77.04 116.895 76.0479 117.199C75.0559 117.504 74.4041 118.155 74.5921 118.654C74.78 119.153 75.7366 119.311 76.7286 119.006Z" fill="white"/>
<path d="M75.7549 119.462C75.027 119.462 74.4473 119.207 74.2754 118.751C74.0243 118.084 74.7557 117.277 75.9403 116.913C77.1253 116.55 78.2497 116.788 78.5009 117.455C78.752 118.121 78.0208 118.928 76.836 119.292C76.4612 119.407 76.0919 119.462 75.7548 119.462H75.7549ZM77.0353 117.346C76.7739 117.346 76.4709 117.388 76.1555 117.485C75.3087 117.745 74.7987 118.265 74.9085 118.556C75.0185 118.848 75.774 118.98 76.6209 118.721C77.4676 118.461 77.9777 117.94 77.8678 117.649C77.7988 117.466 77.4755 117.346 77.0353 117.346Z" fill="#242D35"/>
<path d="M77.357 118.299C77.6967 118.299 77.9722 118.051 77.9722 117.744C77.9722 117.438 77.6967 117.189 77.357 117.189C77.0172 117.189 76.7418 117.438 76.7418 117.744C76.7418 118.051 77.0172 118.299 77.357 118.299Z" fill="#242D35"/>
<path d="M78.1668 122.878C77.4394 122.878 76.671 122.64 76.16 122.209C76.0952 122.154 76.0571 122.079 76.0542 121.999C76.0512 121.919 76.0835 121.841 76.1441 121.782C76.2047 121.724 76.2885 121.69 76.3771 121.687C76.4657 121.684 76.5519 121.713 76.6167 121.768C77.1916 122.253 78.2799 122.423 78.9459 122.13C79.0257 122.095 79.1176 122.091 79.2014 122.117C79.2852 122.143 79.3541 122.198 79.393 122.27C79.4736 122.419 79.4045 122.6 79.2385 122.673C78.9219 122.812 78.5501 122.878 78.1668 122.878ZM77.4494 126.547C76.6934 126.967 74.8182 126.967 73.7279 126.547C73.2555 126.365 72.594 127.006 74.0768 127.458C75.0247 127.748 75.9975 127.495 76.4318 128.128C77.1077 129.111 78.6258 129.333 79.1492 128.762L77.4494 126.547Z" fill="#242D35"/>
<path d="M78.2746 129.374C78.2266 129.374 78.1781 129.372 78.1288 129.369C77.3319 129.32 76.5727 128.905 76.1476 128.287C75.9682 128.026 75.6381 127.982 75.07 127.929C74.7342 127.898 74.3537 127.862 73.9698 127.745C73.2864 127.536 72.9063 127.255 72.8397 126.909C72.7998 126.701 72.8889 126.496 73.0783 126.36C73.2948 126.206 73.6012 126.17 73.8593 126.269C74.85 126.651 76.6055 126.661 77.2744 126.29C77.3472 126.249 77.4345 126.236 77.5182 126.251C77.602 126.267 77.6758 126.312 77.7244 126.375L79.4241 128.591C79.4656 128.645 79.4863 128.71 79.4832 128.775C79.4801 128.841 79.4532 128.904 79.4067 128.955C79.1594 129.224 78.752 129.374 78.2746 129.374V129.374ZM73.5081 126.826C73.5484 126.887 73.7186 127.031 74.184 127.173C74.4973 127.269 74.8236 127.299 75.1394 127.329C75.7369 127.385 76.3549 127.443 76.716 127.969C77.0913 128.515 77.7363 128.74 78.1744 128.767C78.374 128.779 78.5551 128.755 78.694 128.699L77.3377 126.931C76.3883 127.269 74.667 127.236 73.5969 126.825C73.5828 126.819 73.5677 126.817 73.5525 126.817C73.5372 126.817 73.522 126.82 73.5081 126.826Z" fill="#242D35"/>
<path d="M145.031 174.764C144.954 175.675 144.675 177.515 144.277 179.885C144.259 179.997 144.239 180.111 144.219 180.226C142.56 189.998 139.013 208.091 139.013 208.091H125.93C125.93 208.091 128.285 186.016 128.023 177.633L99.11 175.862L71.7653 242.446H57.3733L79.0926 168.778L107.38 161.223C107.38 161.223 114.926 161.591 122.797 162.397C124.002 162.521 125.091 162.632 126.082 162.733C129.429 163.076 131.645 163.305 133.344 163.506C142.677 164.613 145.424 170.125 145.031 174.764Z" fill="url(#paint8_linear_2016_13131)"/>
<path d="M145.031 174.764C144.954 175.675 144.675 177.515 144.277 179.885C144.259 179.997 144.239 180.111 144.219 180.226C142.448 178.175 143.722 175.322 142.187 173.64C141.726 173.132 141.061 172.795 140.611 172.278C140.014 171.593 139.867 170.683 139.528 169.869C137.69 165.449 132.413 166.155 130.962 166.078C127.135 165.879 126.981 164.044 126.082 162.733C129.429 163.076 131.645 163.305 133.344 163.506C142.677 164.613 145.424 170.125 145.031 174.764ZM57.374 242.447L79.4846 168.07L81.6871 167.638L58.9656 242.447H57.374Z" fill="white"/>
<path d="M71.7656 242.748H57.3741C57.3229 242.748 57.2724 242.737 57.2265 242.717C57.1806 242.697 57.1405 242.667 57.1093 242.63C57.0781 242.594 57.0566 242.551 57.0465 242.506C57.0364 242.46 57.0379 242.414 57.051 242.369L78.7691 168.701C78.7838 168.651 78.8125 168.605 78.8524 168.568C78.8924 168.531 78.9423 168.504 78.9973 168.489L107.285 160.934C107.323 160.924 107.363 160.92 107.403 160.922C107.568 160.932 124.022 161.979 131.991 162.94C142.032 164.151 145.985 168.093 145.206 176.122C144.76 180.717 139.396 207.871 139.342 208.145C139.328 208.215 139.288 208.278 139.228 208.323C139.168 208.369 139.092 208.394 139.013 208.394H125.93C125.883 208.394 125.837 208.385 125.795 208.368C125.752 208.351 125.714 208.326 125.682 208.295C125.651 208.264 125.627 208.227 125.613 208.187C125.598 208.147 125.593 208.105 125.597 208.063C125.62 207.845 127.897 186.383 127.697 177.915L99.336 176.178L72.0791 242.551C72.0554 242.609 72.0126 242.659 71.9566 242.694C71.9006 242.729 71.8339 242.748 71.7656 242.748ZM57.8091 242.145H71.5331L98.796 175.757C98.8207 175.696 98.8669 175.644 98.9276 175.608C98.9883 175.573 99.0602 175.556 99.1322 175.561L128.046 177.332C128.129 177.337 128.207 177.37 128.264 177.424C128.322 177.478 128.355 177.549 128.358 177.624C128.599 185.369 126.589 204.998 126.298 207.79H138.733C139.277 205.034 144.12 180.403 144.54 176.069C145.29 168.341 141.628 164.711 131.903 163.538C124.198 162.609 108.521 161.598 107.417 161.528L79.3672 169.02L57.8091 242.145Z" fill="#242D35"/>
<path d="M78.4508 166.682L107.137 159.507L107.909 162.021L79.2231 169.196L78.4508 166.682Z" fill="url(#paint9_linear_2016_13131)"/>
<path d="M79.2233 169.498C79.1502 169.498 79.0791 169.476 79.0209 169.436C78.9628 169.396 78.9207 169.34 78.9012 169.276L78.1288 166.762C78.117 166.724 78.1137 166.684 78.1191 166.645C78.1244 166.605 78.1383 166.567 78.1599 166.533C78.1816 166.498 78.2106 166.468 78.2452 166.443C78.2799 166.419 78.3195 166.401 78.3619 166.391L107.048 159.216C107.133 159.195 107.224 159.205 107.302 159.244C107.379 159.284 107.435 159.349 107.459 159.426L108.232 161.94C108.243 161.979 108.247 162.018 108.241 162.058C108.236 162.097 108.222 162.135 108.2 162.17C108.179 162.204 108.15 162.234 108.115 162.259C108.08 162.283 108.041 162.301 107.998 162.312L79.3127 169.487C79.2836 169.494 79.2535 169.498 79.2233 169.498ZM78.8627 166.892L79.4565 168.825L107.498 161.811L106.904 159.878L78.8627 166.892Z" fill="#242D35"/>
<path d="M94.1148 162.764L99.207 161.49L99.9791 164.005L94.887 165.278L94.1148 162.764Z" fill="white"/>
<path d="M94.8872 165.58C94.8141 165.58 94.743 165.558 94.6848 165.518C94.6267 165.478 94.5846 165.422 94.5651 165.358L93.7927 162.844C93.7809 162.806 93.7776 162.766 93.7829 162.727C93.7883 162.687 93.8022 162.649 93.8238 162.615C93.8455 162.58 93.8745 162.55 93.9091 162.526C93.9438 162.501 93.9834 162.483 94.0257 162.473L99.1179 161.199C99.1602 161.189 99.2044 161.186 99.248 161.19C99.2917 161.195 99.3338 161.208 99.372 161.227C99.4102 161.247 99.4438 161.273 99.4709 161.304C99.4979 161.336 99.5178 161.371 99.5295 161.41L100.302 163.924C100.325 164.001 100.314 164.083 100.27 164.153C100.227 164.223 100.154 164.274 100.069 164.295L94.9766 165.569C94.9475 165.576 94.9174 165.58 94.8872 165.58ZM94.5266 162.974L95.1204 164.907L99.5679 163.794L98.9743 161.861L94.5268 162.974H94.5266ZM93.6147 178.112C93.537 178.112 93.4617 178.088 93.4017 178.044C93.3416 177.999 93.3006 177.937 93.2855 177.869C93.2705 177.8 93.2825 177.729 93.3193 177.667C93.3562 177.605 93.4157 177.557 93.4876 177.531L107.133 172.482C107.174 172.467 107.218 172.459 107.261 172.459C107.305 172.459 107.349 172.467 107.389 172.483C107.43 172.498 107.467 172.52 107.497 172.548C107.528 172.577 107.553 172.61 107.57 172.647C107.586 172.683 107.595 172.722 107.595 172.762C107.594 172.802 107.586 172.841 107.569 172.877C107.552 172.914 107.527 172.947 107.496 172.975C107.465 173.003 107.428 173.025 107.387 173.04L93.7412 178.089C93.6998 178.105 93.6568 178.112 93.6145 178.112H93.6147Z" fill="#242D35"/>
<path d="M101.988 174.924C101.921 174.924 101.856 174.906 101.8 174.872C101.745 174.839 101.702 174.791 101.677 174.735L97.2368 164.725C97.2051 164.651 97.2071 164.569 97.2422 164.496C97.2773 164.423 97.3428 164.366 97.4244 164.336C97.5061 164.307 97.5973 164.307 97.6784 164.338C97.7595 164.369 97.8238 164.427 97.8575 164.501L102.298 174.51C102.319 174.556 102.326 174.606 102.32 174.655C102.315 174.704 102.296 174.751 102.265 174.792C102.234 174.832 102.193 174.866 102.145 174.889C102.097 174.912 102.043 174.924 101.988 174.924H101.988Z" fill="#242D35"/>
<path d="M96.3618 172.799C96.2949 172.799 96.2296 172.781 96.1743 172.747C96.1189 172.713 96.0761 172.665 96.0514 172.609L93.0287 165.777C93.0124 165.74 93.0043 165.701 93.0049 165.661C93.0055 165.622 93.0147 165.582 93.032 165.546C93.0493 165.51 93.0744 165.477 93.1059 165.449C93.1373 165.421 93.1745 165.4 93.2153 165.385C93.256 165.37 93.2996 165.363 93.3435 165.363C93.3874 165.364 93.4308 165.372 93.4712 165.388C93.5115 165.404 93.548 165.426 93.5787 165.455C93.6093 165.483 93.6335 165.516 93.6498 165.553L96.5512 172.112L100.321 170.845C100.362 170.831 100.406 170.824 100.45 170.825C100.495 170.826 100.538 170.835 100.579 170.851C100.619 170.867 100.656 170.891 100.686 170.92C100.716 170.949 100.74 170.984 100.755 171.021C100.771 171.059 100.778 171.098 100.776 171.138C100.774 171.178 100.764 171.218 100.745 171.254C100.726 171.29 100.7 171.323 100.667 171.35C100.634 171.376 100.596 171.397 100.554 171.411L96.4785 172.78C96.4412 172.793 96.4017 172.799 96.3618 172.799ZM83.6761 213.443C84.1292 209.922 81.812 206.725 82.3481 204.426C83.2134 200.713 87.2692 201.244 92.9958 190.749C89.9617 197.948 83.6761 213.443 83.6761 213.443Z" fill="#242D35"/>
<path d="M83.6765 213.745C83.6293 213.745 83.5827 213.736 83.5396 213.718C83.4966 213.701 83.4581 213.676 83.4267 213.644C83.3954 213.612 83.3718 213.575 83.3576 213.534C83.3434 213.493 83.3389 213.451 83.3443 213.408C83.575 211.614 83.0504 209.863 82.5877 208.318C82.157 206.882 81.7503 205.524 82.021 204.363C82.4078 202.703 83.4145 201.831 84.8081 200.623C86.6428 199.032 89.4154 196.628 92.696 190.616C92.7341 190.546 92.8003 190.493 92.881 190.466C92.9616 190.44 93.0505 190.442 93.1292 190.473C93.2079 190.504 93.2704 190.561 93.3037 190.632C93.3371 190.704 93.3388 190.784 93.3084 190.856C90.3098 197.971 84.0533 213.392 83.9904 213.547C83.9669 213.605 83.9242 213.655 83.8681 213.69C83.812 213.726 83.7451 213.745 83.6766 213.745H83.6765ZM91.0046 194.666C88.6708 198.11 86.6941 199.824 85.2713 201.058C83.9155 202.233 83.0197 203.01 82.6753 204.488C82.4377 205.507 82.8063 206.737 83.2331 208.161C83.5596 209.251 83.916 210.44 84.0314 211.693C85.3909 208.349 88.5543 200.581 91.0046 194.666ZM67.5789 238.616C67.5262 238.616 67.4743 238.605 67.4274 238.583C67.3805 238.561 67.3399 238.53 67.3089 238.492C67.2779 238.453 67.2574 238.409 67.2491 238.362C67.2407 238.315 67.2447 238.267 67.2608 238.221L87.9322 180.492C87.9595 180.415 88.0192 180.352 88.0982 180.316C88.1373 180.298 88.18 180.287 88.2237 180.284C88.2675 180.28 88.3116 180.285 88.3533 180.297C88.3951 180.309 88.4339 180.329 88.4673 180.355C88.5007 180.38 88.5282 180.412 88.5482 180.447C88.5682 180.482 88.5803 180.521 88.5838 180.56C88.5873 180.6 88.5822 180.64 88.5687 180.677L67.8972 238.407C67.8755 238.468 67.833 238.521 67.7759 238.558C67.7187 238.596 67.6497 238.616 67.5789 238.616ZM129.986 204.498C129.94 204.498 129.894 204.489 129.852 204.472C129.81 204.456 129.772 204.431 129.74 204.401C129.709 204.37 129.685 204.334 129.67 204.295C129.655 204.256 129.649 204.214 129.652 204.172L131.091 187.644C131.099 187.565 131.141 187.491 131.208 187.439C131.275 187.387 131.363 187.361 131.451 187.367C131.495 187.37 131.537 187.381 131.576 187.399C131.616 187.417 131.65 187.442 131.679 187.472C131.707 187.502 131.729 187.537 131.743 187.575C131.756 187.612 131.762 187.652 131.758 187.692L130.319 204.219C130.312 204.295 130.275 204.366 130.213 204.417C130.151 204.469 130.07 204.498 129.986 204.498ZM128.023 177.633C131.381 177.83 133.169 179.246 132.995 181.175C132.821 183.103 128.285 189.99 127.228 194.16C127.674 186.999 128.111 181.725 128.023 177.633V177.633Z" fill="#242D35"/>
<path d="M127.228 194.462C127.183 194.462 127.138 194.454 127.096 194.437C127.054 194.421 127.016 194.397 126.985 194.368C126.954 194.338 126.929 194.302 126.914 194.264C126.898 194.225 126.891 194.184 126.894 194.143C126.984 192.693 127.074 191.32 127.16 190.018C127.494 184.919 127.758 180.891 127.689 177.639C127.688 177.597 127.697 177.555 127.715 177.517C127.732 177.478 127.759 177.444 127.792 177.415C127.826 177.386 127.866 177.364 127.909 177.349C127.953 177.335 127.999 177.329 128.045 177.332C130.084 177.451 131.636 178.009 132.531 178.944C133.129 179.57 133.405 180.349 133.328 181.199C133.242 182.147 132.264 184.03 131.026 186.414C129.661 189.042 128.113 192.021 127.554 194.227C127.537 194.294 127.496 194.353 127.436 194.396C127.377 194.439 127.304 194.462 127.228 194.462L127.228 194.462ZM128.364 177.96C128.409 181.176 128.151 185.113 127.827 190.054C127.792 190.599 127.755 191.156 127.718 191.726C128.458 189.936 129.482 187.965 130.42 186.158C131.534 184.014 132.586 181.989 132.662 181.15C132.725 180.456 132.51 179.846 132.024 179.339C131.3 178.582 130.039 178.108 128.364 177.96ZM133.126 178.23C133.057 178.23 132.991 178.211 132.934 178.176C132.878 178.14 132.836 178.091 132.812 178.033C132.788 177.975 132.785 177.912 132.802 177.852C132.819 177.792 132.857 177.739 132.909 177.699C133.218 177.461 133.229 177.358 133.229 177.357C133.199 177.31 132.968 177.21 132.845 177.157C132.555 177.032 132.226 176.89 132.175 176.587C132.126 176.297 132.379 176.085 132.462 176.015C132.778 175.751 132.814 175.546 132.762 175.472C132.708 175.396 132.481 175.329 132.098 175.472C131.63 175.646 131.132 175.572 130.857 175.286C130.61 175.03 130.601 174.666 130.832 174.312C130.876 174.244 130.923 174.151 130.893 174.095C130.824 173.97 130.486 173.793 129.271 173.664L113.673 172.622C113.629 172.619 113.586 172.608 113.547 172.59C113.508 172.572 113.473 172.548 113.444 172.518C113.415 172.488 113.394 172.453 113.38 172.415C113.366 172.378 113.361 172.338 113.364 172.299C113.367 172.259 113.379 172.22 113.399 172.185C113.418 172.15 113.446 172.118 113.479 172.092C113.512 172.066 113.551 172.047 113.592 172.034C113.634 172.022 113.678 172.017 113.722 172.02L129.334 173.064C130.448 173.181 131.233 173.356 131.492 173.827C131.582 173.991 131.641 174.262 131.408 174.619C131.37 174.676 131.291 174.817 131.362 174.891C131.432 174.963 131.624 174.996 131.842 174.915C132.476 174.679 133.057 174.77 133.325 175.147C133.534 175.44 133.536 175.939 132.917 176.458C132.904 176.469 132.89 176.481 132.878 176.493C132.948 176.533 133.058 176.58 133.133 176.612C133.448 176.748 133.84 176.917 133.893 177.283C133.945 177.647 133.604 177.957 133.343 178.158C133.282 178.205 133.205 178.23 133.126 178.23L133.126 178.23Z" fill="#242D35"/>
<path d="M92.3712 169.25C87.901 171.297 81.4464 172.242 77.1951 171.021C76.9277 168.6 76.4529 166.085 75.7574 163.531V163.528C74.6507 159.47 72.9857 155.319 70.6987 151.311C68.4369 147.342 65.5682 143.513 62.0308 140.053C61.7064 139.735 61.3754 139.419 61.0378 139.107C63.3481 137.531 66.17 136.099 68.7879 134.992C70.025 134.468 71.217 134.017 72.2886 133.657C75.9714 135.816 80.4049 140.317 84.2064 146.432C88.0598 152.634 91.2628 160.493 92.3712 169.25Z" fill="url(#paint10_linear_2016_13131)"/>
<path d="M68.7879 134.992C68.2496 135.917 67.3586 136.807 66.6565 137.359C65.8574 137.989 64.7942 138.258 63.8714 138.73C63.1809 139.084 62.5841 139.543 62.0308 140.053C61.7064 139.735 61.3754 139.419 61.0378 139.107C63.3481 137.531 66.17 136.099 68.7879 134.992Z" fill="white"/>
<path d="M81.5911 171.862C79.9376 171.862 78.3959 171.683 77.0938 171.309C77.0316 171.291 76.9765 171.257 76.9354 171.211C76.8943 171.165 76.8689 171.11 76.8625 171.051C76.5913 168.597 76.1102 166.092 75.4326 163.603C75.4308 163.597 75.4293 163.59 75.4281 163.583C74.2729 159.353 72.5818 155.27 70.4015 151.449C67.8123 146.904 64.5813 142.823 60.7984 139.318C60.7653 139.287 60.7398 139.25 60.7236 139.21C60.7074 139.17 60.7008 139.127 60.7044 139.084C60.708 139.042 60.7216 139 60.7443 138.963C60.767 138.925 60.7983 138.892 60.8361 138.866C64.418 136.422 69.0404 134.427 72.1719 133.374C72.2208 133.358 72.2733 133.352 72.3252 133.357C72.3771 133.362 72.427 133.378 72.4708 133.404C76.4903 135.76 80.8741 140.455 84.498 146.285C87.536 151.174 91.4255 159.121 92.7036 169.216C92.7113 169.277 92.6981 169.339 92.6658 169.393C92.6334 169.448 92.5835 169.492 92.5227 169.519C89.2208 171.031 85.1486 171.862 81.5911 171.862V171.862ZM77.5054 170.791C81.4079 171.826 87.424 171.115 92.0121 169.075C90.72 159.179 86.9016 151.387 83.9147 146.58C80.437 140.985 76.0866 136.295 72.2468 133.993C69.2529 135.014 64.9605 136.872 61.5421 139.144C65.2577 142.636 68.437 146.682 70.996 151.173C73.203 155.041 74.9142 159.174 76.0821 163.457C76.0839 163.463 76.0856 163.47 76.0868 163.477C76.751 165.919 77.2279 168.379 77.5052 170.792L77.5054 170.791Z" fill="#242D35"/>
<path d="M84.2064 146.432L84.2048 146.434L74.4468 143.633L75.1021 138.733L70.1304 137.434L72.2886 133.657C75.9714 135.816 80.4049 140.317 84.2064 146.432Z" fill="url(#paint11_linear_2016_13131)"/>
<path d="M84.2048 146.736C84.1708 146.736 84.1367 146.731 84.1035 146.721L74.3455 143.92C74.2713 143.899 74.2077 143.855 74.1657 143.796C74.1236 143.737 74.1056 143.666 74.115 143.596L74.7362 138.951L70.0376 137.724C69.9902 137.711 69.9464 137.69 69.9093 137.66C69.8723 137.631 69.843 137.594 69.8235 137.553C69.804 137.512 69.7948 137.468 69.7965 137.424C69.7983 137.379 69.811 137.335 69.8336 137.296L71.9917 133.519C72.0131 133.481 72.043 133.448 72.0795 133.422C72.1159 133.395 72.158 133.376 72.2032 133.365C72.2484 133.354 72.2955 133.352 72.3417 133.359C72.3878 133.365 72.4319 133.381 72.4711 133.404C76.4907 135.76 80.8745 140.455 84.4983 146.285C84.534 146.342 84.5479 146.408 84.538 146.474C84.528 146.539 84.4947 146.599 84.4432 146.646L84.4415 146.647C84.3788 146.704 84.2938 146.736 84.2051 146.736H84.2048ZM74.8117 143.421L83.4933 145.913C80.1413 140.694 76.0587 136.337 72.4145 134.095L70.6138 137.246L75.1951 138.443C75.2713 138.463 75.3371 138.507 75.3809 138.567C75.4246 138.626 75.4434 138.698 75.434 138.769L74.8117 143.421ZM75.7575 163.528C74.6508 159.47 72.9857 155.319 70.6988 151.311C70.7054 151.297 70.7105 151.285 70.7171 151.273C72.419 150.569 74.8731 150.214 76.2456 152.094C77.4543 153.752 74.8413 159.332 75.7575 163.528Z" fill="#242D35"/>
<path d="M75.7571 163.83C75.6824 163.83 75.6098 163.807 75.5511 163.766C75.4923 163.724 75.4506 163.666 75.4328 163.601C74.2776 159.364 72.5848 155.276 70.4015 151.449C70.3786 151.409 70.366 151.365 70.3645 151.32C70.3631 151.274 70.373 151.23 70.3933 151.188C70.4042 151.165 70.4107 151.152 70.4181 151.138C70.4522 151.077 70.5085 151.028 70.5777 150.999C71.5268 150.606 74.7606 149.512 76.5246 151.928C77.1848 152.833 76.8701 154.557 76.4721 156.738C76.0759 158.909 75.6267 161.369 76.0854 163.47C76.095 163.514 76.0936 163.559 76.0815 163.602C76.0695 163.646 76.0469 163.686 76.0155 163.72C75.9841 163.755 75.9447 163.782 75.9 163.801C75.8553 163.82 75.8065 163.83 75.7571 163.83ZM71.1444 151.435C72.8061 154.386 74.1803 157.489 75.2462 160.693C75.3229 159.321 75.5769 157.931 75.8124 156.64C76.1571 154.752 76.4826 152.968 75.9662 152.26C74.6516 150.459 72.3342 150.996 71.1444 151.435Z" fill="#242D35"/>
<path d="M137.508 140.149C134.432 142.417 124.572 148.16 113.714 147.986C110.714 147.939 107.636 147.439 104.605 146.289L104.608 146.292C106.731 149.303 108.987 155.912 109.838 159.335C110.254 161.011 110.145 161.56 109.15 162.581C107.974 163.791 105.389 164.972 102.871 165.414C101.126 155.627 98.1237 148.308 93.8156 142.58C90.5373 138.222 86.5017 134.785 81.6871 131.886C92.3294 129.705 101.313 133.69 108.86 134.763C108.942 134.775 109.023 134.785 109.105 134.796C110.256 134.95 111.371 135.034 112.454 135.015C115.605 134.957 118.489 134.649 121.027 134.23C121.037 134.229 121.048 134.226 121.058 134.224C126.46 133.33 130.285 131.936 131.752 131.414C133.125 133.361 137.508 140.149 137.508 140.149Z" fill="url(#paint12_linear_2016_13131)"/>
<path d="M102.871 165.716C102.792 165.716 102.715 165.69 102.655 165.644C102.594 165.597 102.554 165.533 102.541 165.462C100.851 155.986 97.9065 148.557 93.5388 142.749C90.4263 138.612 86.4889 135.141 81.5014 132.137C81.447 132.104 81.4045 132.058 81.3791 132.004C81.3537 131.949 81.3465 131.889 81.3583 131.831C81.3702 131.773 81.4006 131.72 81.4459 131.677C81.4911 131.635 81.5492 131.605 81.6129 131.592C89.3402 130.008 96.1853 131.638 102.225 133.075C104.58 133.636 106.804 134.165 108.912 134.465C108.993 134.477 109.073 134.487 109.153 134.498C110.373 134.661 111.45 134.733 112.447 134.713C115.281 134.662 118.148 134.399 120.966 133.934C120.979 133.931 120.993 133.928 121.005 133.927C126.21 133.064 129.914 131.745 131.495 131.181L131.63 131.133C131.702 131.108 131.782 131.105 131.856 131.127C131.929 131.149 131.993 131.193 132.034 131.252C133.395 133.182 137.753 139.93 137.797 139.998C137.837 140.06 137.851 140.133 137.837 140.204C137.823 140.274 137.781 140.338 137.72 140.384C137.276 140.71 126.842 148.292 114.21 148.292C114.043 148.292 113.876 148.291 113.708 148.288C110.799 148.243 108.004 147.774 105.386 146.894C107.352 150.141 109.355 156.018 110.164 159.269C110.603 161.037 110.46 161.694 109.401 162.781C108.162 164.055 105.503 165.26 102.935 165.711C102.914 165.714 102.893 165.716 102.871 165.716L102.871 165.716ZM82.5245 132.034C87.2781 134.989 91.0674 138.389 94.0921 142.41C98.4677 148.228 101.43 155.638 103.145 165.054C105.441 164.589 107.819 163.492 108.899 162.382C109.816 161.441 109.907 160.995 109.511 159.401C108.645 155.918 106.4 149.398 104.329 146.458C104.292 146.407 104.272 146.347 104.273 146.286C104.274 146.226 104.295 146.166 104.334 146.116C104.377 146.06 104.44 146.019 104.513 146C104.586 145.98 104.664 145.984 104.734 146.011C107.532 147.072 110.556 147.635 113.72 147.684C123.626 147.841 133.181 142.87 137.074 140.077C136.333 138.931 132.952 133.711 131.617 131.786C129.953 132.378 126.263 133.669 121.118 134.521L121.085 134.527C118.233 134.998 115.33 135.264 112.46 135.316C111.426 135.333 110.312 135.262 109.056 135.094C108.972 135.083 108.889 135.072 108.805 135.06C106.666 134.756 104.426 134.223 102.054 133.658C96.2898 132.286 89.782 130.737 82.5241 132.034L82.5245 132.034Z" fill="#242D35"/>
<path d="M94.0948 137.336L93.8156 142.58C90.5373 138.222 86.5017 134.785 81.6871 131.886C82.0148 131.905 87.4646 132.928 87.4646 132.928L87.3777 134.503L94.0948 137.336Z" fill="url(#paint13_linear_2016_13131)"/>
<path d="M93.8156 142.881C93.761 142.881 93.7073 142.869 93.6591 142.846C93.6109 142.823 93.5697 142.79 93.5391 142.749C90.4265 138.612 86.489 135.14 81.5015 132.137C81.4402 132.1 81.3941 132.046 81.3704 131.983C81.3467 131.92 81.3466 131.852 81.3703 131.789C81.394 131.726 81.44 131.672 81.5013 131.635C81.5626 131.598 81.6357 131.58 81.7092 131.585C82.0432 131.605 86.6187 132.461 87.5327 132.633C87.694 132.663 87.8068 132.794 87.7985 132.943L87.7229 134.315L94.2364 137.063C94.2964 137.088 94.3468 137.129 94.3811 137.18C94.4153 137.231 94.4319 137.291 94.4288 137.35L94.1496 142.594C94.1454 142.671 94.1084 142.744 94.0462 142.798C93.984 142.851 93.9015 142.881 93.8156 142.881ZM83.1745 132.444C87.3399 135.12 90.7439 138.156 93.5289 141.68L93.7501 137.524L87.2363 134.776C87.1761 134.751 87.1257 134.71 87.0915 134.659C87.0573 134.607 87.0407 134.548 87.044 134.488L87.1166 133.171C85.8035 132.925 84.4895 132.683 83.1746 132.445L83.1745 132.444ZM113.714 147.986C110.714 147.939 107.636 147.439 104.605 146.289C103.309 144.221 102.188 142.412 101.447 141.221C100.979 140.468 100.063 138.229 103.426 138.753C105.956 139.146 106.619 141.552 106.872 142.728C107.439 145.363 109.836 147.107 113.714 147.986Z" fill="#242D35"/>
<path d="M113.715 148.288H113.709C110.459 148.237 107.353 147.658 104.475 146.567C104.407 146.541 104.35 146.496 104.314 146.438C103.22 144.692 102.251 143.131 101.529 141.97L101.156 141.368C100.997 141.114 100.242 139.803 100.9 138.963C101.321 138.425 102.191 138.254 103.483 138.456C105.413 138.756 106.664 140.174 107.2 142.67C107.73 145.131 109.949 146.821 113.796 147.694C113.875 147.712 113.944 147.755 113.991 147.816C114.037 147.876 114.057 147.95 114.047 148.023C114.037 148.097 113.998 148.164 113.936 148.213C113.875 148.261 113.796 148.288 113.715 148.288L113.715 148.288ZM104.84 146.051C106.844 146.8 108.963 147.296 111.166 147.53C108.55 146.49 106.998 144.9 106.544 142.785C106.059 140.529 105.021 139.307 103.37 139.05C102.367 138.894 101.702 138.984 101.446 139.311C101.092 139.763 101.483 140.661 101.739 141.073L102.113 141.675C103.019 143.135 103.928 144.593 104.84 146.051H104.84ZM120.456 137.338C121.286 138.998 117.282 139.309 115.187 137.599C113.953 136.589 111.093 135.099 109.105 134.796C110.256 134.95 111.371 135.034 112.454 135.014C115.605 134.957 118.489 134.649 121.027 134.23C118.882 134.642 119.816 136.054 120.456 137.338Z" fill="#242D35"/>
<path d="M118.626 139.038C117.415 139.038 115.967 138.643 114.963 137.822C113.816 136.884 111.012 135.393 109.05 135.093C108.963 135.079 108.887 135.036 108.836 134.971C108.785 134.907 108.764 134.827 108.778 134.749C108.792 134.671 108.839 134.601 108.909 134.554C108.98 134.507 109.068 134.486 109.154 134.497C110.373 134.66 111.451 134.731 112.447 134.713C115.282 134.661 118.148 134.399 120.966 133.933C121.053 133.919 121.142 133.936 121.214 133.981C121.287 134.025 121.337 134.094 121.354 134.172C121.371 134.249 121.354 134.33 121.306 134.396C121.257 134.462 121.182 134.509 121.096 134.525C120.566 134.627 120.231 134.797 120.102 135.031C119.863 135.461 120.237 136.19 120.599 136.894C120.654 137.001 120.709 137.108 120.761 137.214C121.041 137.773 120.902 138.29 120.381 138.632C119.971 138.901 119.34 139.038 118.626 139.038H118.626ZM111.819 135.316C113.287 135.943 114.68 136.777 115.412 137.375C116.826 138.529 119.191 138.667 119.987 138.144C120.25 137.971 120.301 137.761 120.152 137.462C120.1 137.358 120.046 137.253 119.992 137.148C119.565 136.316 119.124 135.456 119.5 134.767C117.17 135.089 114.818 135.272 112.461 135.316C112.247 135.32 112.033 135.32 111.819 135.316L111.819 135.316ZM142.633 128.98C142.551 128.98 142.472 128.953 142.411 128.904C142.35 128.855 142.311 128.787 142.301 128.714C142.292 128.64 142.312 128.566 142.359 128.506C142.406 128.445 142.476 128.402 142.555 128.385C142.856 128.321 144.35 127.936 144.305 126.701C144.302 126.629 144.329 126.558 144.379 126.502C144.429 126.445 144.5 126.407 144.579 126.394C145.651 126.218 146.696 125.744 147.144 125.491C147.181 125.47 147.223 125.456 147.266 125.449C147.309 125.443 147.353 125.444 147.396 125.453C147.439 125.462 147.479 125.478 147.515 125.501C147.551 125.524 147.581 125.553 147.605 125.587C147.628 125.62 147.644 125.658 147.651 125.697C147.658 125.736 147.657 125.776 147.647 125.815C147.637 125.853 147.619 125.89 147.593 125.922C147.568 125.954 147.536 125.982 147.498 126.003C147.047 126.257 146.041 126.718 144.966 126.939C144.857 128.099 143.713 128.757 142.711 128.972C142.685 128.978 142.659 128.98 142.633 128.98L142.633 128.98Z" fill="#242D35"/>
<path d="M144.394 128.849C144.115 128.849 143.841 128.776 143.699 128.571C143.539 128.34 143.606 128.052 143.899 127.715C143.926 127.683 143.96 127.657 143.998 127.637C144.036 127.618 144.078 127.605 144.122 127.6C144.166 127.595 144.21 127.598 144.253 127.609C144.295 127.62 144.335 127.638 144.369 127.662C144.404 127.687 144.433 127.717 144.455 127.752C144.476 127.787 144.49 127.825 144.495 127.864C144.5 127.904 144.497 127.944 144.485 127.982C144.473 128.02 144.452 128.056 144.425 128.087C144.382 128.135 144.344 128.186 144.312 128.241C144.405 128.249 144.499 128.244 144.591 128.226C145.479 128.054 147.335 127.288 147.943 126.668C148.002 126.61 148.085 126.574 148.172 126.57C148.26 126.566 148.346 126.593 148.412 126.646C148.478 126.698 148.518 126.772 148.524 126.851C148.53 126.93 148.501 127.008 148.444 127.068C147.72 127.806 145.723 128.624 144.731 128.816C144.62 128.838 144.507 128.849 144.394 128.849Z" fill="#242D35"/>
<path d="M145.077 129.772C144.657 129.772 144.18 129.605 144.02 129.257C143.935 129.075 143.879 128.707 144.449 128.287C144.518 128.237 144.606 128.214 144.694 128.222C144.782 128.23 144.863 128.269 144.919 128.331C144.974 128.393 145.001 128.472 144.992 128.552C144.984 128.631 144.94 128.704 144.872 128.755C144.653 128.916 144.632 129.013 144.637 129.024C144.666 129.087 144.901 129.191 145.149 129.165C146.497 129.036 148.171 128.327 148.712 127.804C148.772 127.745 148.856 127.711 148.945 127.708C149.033 127.705 149.119 127.734 149.184 127.789C149.249 127.843 149.288 127.919 149.291 127.999C149.294 128.079 149.262 128.156 149.201 128.215C148.568 128.829 146.777 129.616 145.22 129.766C145.172 129.77 145.125 129.772 145.077 129.772Z" fill="#242D35"/>
<path d="M146.227 130.821C145.423 130.821 144.679 130.543 144.481 130.094C144.423 129.962 144.292 129.507 145.043 129.192C145.083 129.175 145.126 129.166 145.17 129.164C145.214 129.163 145.258 129.169 145.299 129.182C145.34 129.196 145.378 129.217 145.41 129.243C145.443 129.27 145.469 129.302 145.487 129.338C145.506 129.374 145.516 129.413 145.518 129.453C145.52 129.492 145.513 129.532 145.498 129.569C145.483 129.606 145.46 129.641 145.43 129.67C145.401 129.699 145.365 129.723 145.325 129.739C145.132 129.82 145.101 129.883 145.1 129.883C145.106 129.887 145.155 129.954 145.312 130.031C145.662 130.204 146.327 130.304 146.959 130.114C147.043 130.09 147.134 130.097 147.212 130.133C147.291 130.169 147.35 130.231 147.378 130.307C147.406 130.382 147.4 130.464 147.361 130.535C147.322 130.606 147.254 130.661 147.171 130.687C146.866 130.778 146.542 130.821 146.227 130.821L146.227 130.821Z" fill="#242D35"/>
<path d="M71.7001 132.417L71.5065 133.928L76.312 137.7L79.8117 133.273L71.7001 132.417Z" fill="white"/>
<path d="M76.312 138.002C76.2319 138.002 76.1538 137.976 76.0924 137.928L71.287 134.156C71.246 134.124 71.2143 134.083 71.1947 134.038C71.1751 133.992 71.1681 133.943 71.1743 133.894L71.3679 132.382C71.3782 132.303 71.423 132.23 71.4925 132.18C71.5619 132.131 71.6498 132.108 71.7389 132.117L79.8504 132.973C79.9081 132.979 79.9631 132.999 80.0099 133.03C80.0568 133.061 80.0938 133.103 80.1173 133.151C80.1409 133.199 80.1502 133.251 80.1443 133.303C80.1384 133.356 80.1175 133.406 80.0837 133.448L76.5839 137.875C76.553 137.915 76.5122 137.946 76.4649 137.968C76.4175 137.99 76.365 138.002 76.3118 138.002L76.312 138.002ZM71.8588 133.805L76.2534 137.254L79.2108 133.513L71.9937 132.752L71.8586 133.805L71.8588 133.805Z" fill="#242D35"/>
<path d="M80.6851 130.764L79.8117 133.273L84.718 134.04L83.3114 131.62L80.6851 130.764Z" fill="white"/>
<path d="M84.7178 134.342C84.6989 134.342 84.6797 134.341 84.6606 134.338L79.7544 133.57C79.7075 133.563 79.6628 133.547 79.6234 133.522C79.584 133.498 79.5508 133.467 79.5261 133.43C79.5013 133.393 79.4855 133.352 79.4797 133.309C79.4739 133.267 79.4783 133.223 79.4926 133.182L80.3661 130.674C80.3933 130.595 80.455 130.53 80.5368 130.494C80.5771 130.476 80.6212 130.465 80.6662 130.463C80.7113 130.46 80.7564 130.466 80.7987 130.48L83.4251 131.336C83.5036 131.362 83.5687 131.413 83.6076 131.48L85.014 133.9C85.0407 133.946 85.0538 133.998 85.0521 134.049C85.0503 134.101 85.0337 134.152 85.004 134.196C84.9742 134.241 84.9322 134.277 84.8821 134.303C84.832 134.328 84.7755 134.342 84.718 134.342L84.7178 134.342ZM80.2451 133.035L84.1068 133.639L83.0757 131.864L80.8995 131.155L80.2451 133.035ZM69.2798 124.94C70.3037 124.27 69.7774 122.759 68.4205 122.444C66.9813 122.11 66.0781 120.639 67.448 119.352C68.5165 118.349 70.3699 119.195 71.1249 121.02C72.0226 123.191 72.71 122.449 72.3788 121.225C71.7657 118.959 70.3577 117.587 72.2453 116.479C73.9897 115.456 78.8239 115.412 78.6561 111.875C78.5252 109.12 76.3011 108.373 73.6845 108.373C71.0679 108.373 64.0029 110.695 64.7007 116.322C60.6885 121.635 67.5355 126.082 69.2798 124.94V124.94Z" fill="#242D35"/>
<path d="M68.5582 125.423C67.6013 125.423 66.3367 124.87 65.2382 123.907C63.317 122.223 62.0896 119.334 64.3556 116.244C64.1522 114.356 64.7639 112.677 66.175 111.253C68.3504 109.058 71.876 108.071 73.6843 108.071C77.0855 108.071 78.8707 109.347 78.9899 111.862C79.1226 114.655 76.3467 115.462 74.3199 116.051C73.5741 116.268 72.8697 116.473 72.4273 116.732C71.3134 117.386 71.5252 118.049 72.1104 119.487C72.3096 119.977 72.5357 120.533 72.7037 121.153C72.9176 121.944 72.76 122.559 72.3111 122.684C71.7937 122.826 71.3044 122.317 70.8114 121.126C70.4033 120.139 69.6186 119.404 68.8123 119.253C68.5099 119.196 68.0694 119.204 67.6891 119.561C67.1842 120.036 67.0008 120.551 67.1585 121.052C67.3208 121.568 67.8489 122 68.5037 122.152C69.3304 122.344 69.9638 122.94 70.1173 123.67C70.2442 124.273 70.0043 124.839 69.4757 125.185C69.2291 125.346 68.915 125.423 68.5581 125.423L68.5582 125.423ZM73.6843 108.674C72.0485 108.674 68.689 109.622 66.6734 111.656C65.3672 112.974 64.8152 114.532 65.0329 116.288C65.0419 116.36 65.022 116.432 64.9769 116.492C62.3014 120.035 64.857 122.732 65.7041 123.474C67.0256 124.632 68.546 125.048 69.0835 124.696C69.4015 124.488 69.5391 124.155 69.4606 123.782C69.3552 123.281 68.9142 122.871 68.3371 122.736C67.4429 122.528 66.7449 121.946 66.5155 121.217C66.2925 120.508 66.5381 119.771 67.2071 119.143C67.669 118.71 68.2871 118.538 68.9483 118.662C69.9899 118.857 70.944 119.72 71.4383 120.915C71.7493 121.667 71.9861 121.948 72.1022 122.05C72.1363 121.924 72.1548 121.668 72.0542 121.296C71.8954 120.709 71.6762 120.17 71.483 119.695C70.9314 118.34 70.4555 117.17 72.0634 116.227C72.5806 115.923 73.3261 115.707 74.1153 115.477C76.1391 114.889 78.4331 114.222 78.3222 111.888C78.2181 109.696 76.7444 108.675 73.6846 108.675L73.6843 108.674Z" fill="#242D35"/>
<path d="M73.1829 167.105C74.9383 167.046 79.3371 166.185 80.7931 165.806C82.4939 165.364 83.9003 166.161 81.48 166.928C79.2795 167.626 78.2418 167.961 78.5362 168.463C78.8306 168.965 83.0568 168.444 84.0638 168.286C85.4375 168.069 86.2225 168.66 85.274 169.319C86.5061 169.643 86.1789 170.47 84.5545 171.001C81.8406 171.889 78.1111 171.68 77.9802 172.329C77.8493 172.978 80.2862 173.432 81.4472 173.618C82.919 173.854 82.6935 174.935 81.2509 174.857C77.4242 174.651 73.303 172.388 71.4713 173.244C71.5694 171.001 72.0818 168.079 73.1829 167.105V167.105Z" fill="url(#paint14_linear_2016_13131)"/>
<path d="M81.3961 175.163C81.3427 175.163 81.2877 175.162 81.2311 175.159C79.4911 175.065 77.6927 174.556 76.106 174.107C74.2624 173.586 72.5205 173.093 71.6251 173.512C71.5731 173.537 71.515 173.548 71.4565 173.546C71.398 173.543 71.3413 173.527 71.2919 173.499C71.2425 173.471 71.2022 173.431 71.1751 173.384C71.148 173.337 71.1349 173.285 71.1373 173.232C71.1732 172.409 71.4298 168.233 72.9488 166.89C73.0082 166.837 73.0873 166.806 73.1704 166.804C74.8549 166.747 79.1787 165.913 80.7003 165.517C81.8269 165.223 82.8953 165.412 83.0812 165.938C83.1977 166.267 83.0339 166.755 81.5907 167.213C80.2872 167.626 78.9403 168.053 78.8251 168.295C79.3255 168.508 82.2679 168.262 84.0062 167.989C84.9709 167.837 85.7396 168.036 85.9639 168.496C86.0231 168.617 86.1004 168.888 85.8529 169.213C86.2665 169.436 86.3489 169.719 86.355 169.892C86.3735 170.421 85.759 170.928 84.6683 171.285C83.2987 171.733 81.6943 171.907 80.4052 172.047C79.5761 172.137 78.5536 172.248 78.3199 172.399C78.3858 172.484 78.8239 172.891 81.5056 173.321C82.5243 173.484 82.8268 173.99 82.7766 174.374C82.7251 174.765 82.2719 175.163 81.3961 175.163V175.163ZM72.4982 172.751C73.5456 172.751 74.8562 173.122 76.306 173.532C77.8558 173.97 79.6127 174.467 81.2707 174.557C81.8376 174.586 82.0987 174.406 82.1124 174.303C82.1265 174.195 81.9061 173.998 81.3884 173.915C78.2955 173.419 77.9018 172.908 77.7724 172.74C77.6609 172.595 77.6188 172.435 77.6509 172.275C77.7615 171.726 78.672 171.627 80.3252 171.448C81.5805 171.312 83.1427 171.142 84.4402 170.718C85.3581 170.417 85.6916 170.064 85.6863 169.911C85.6833 169.826 85.5256 169.7 85.1799 169.608C85.1206 169.593 85.0673 169.563 85.0258 169.521C84.9843 169.48 84.9563 169.429 84.9449 169.375C84.9335 169.32 84.9391 169.263 84.9611 169.211C84.9831 169.159 85.0206 169.114 85.0696 169.08C85.3136 168.91 85.3721 168.781 85.3518 168.739C85.2983 168.629 84.8693 168.465 84.121 168.583C83.5782 168.668 82.2669 168.836 81.0591 168.923C78.7283 169.089 78.3823 168.846 78.2407 168.604C78.1136 168.387 78.1475 168.202 78.1984 168.085C78.4095 167.599 79.2698 167.309 81.369 166.644C82.1851 166.385 82.3862 166.175 82.4305 166.112C82.2966 166.006 81.6881 165.888 80.8859 166.097C79.3774 166.489 75.1496 167.306 73.3329 167.401C72.4738 168.279 71.9723 170.653 71.8299 172.812C72.0383 172.77 72.2617 172.751 72.4984 172.751L72.4982 172.751Z" fill="#242D35"/>
<path d="M68.9526 166.536C70.7188 167.008 73.1828 167.105 73.1828 167.105L71.5416 175.576L65.1803 174.524L68.9526 166.536Z" fill="white"/>
<path d="M71.5418 175.877C71.5217 175.877 71.5017 175.876 71.4816 175.872L65.1201 174.821C65.0708 174.813 65.024 174.795 64.9834 174.768C64.9428 174.742 64.9094 174.707 64.8856 174.667C64.8619 174.627 64.8484 174.583 64.8462 174.538C64.844 174.493 64.8531 174.448 64.8729 174.406L68.6452 166.417C68.6773 166.349 68.7361 166.294 68.8103 166.263C68.8845 166.231 68.9691 166.225 69.0477 166.246C70.7531 166.702 73.1732 166.803 73.1975 166.804C73.245 166.806 73.2915 166.817 73.3338 166.836C73.3762 166.855 73.4135 166.883 73.4433 166.916C73.4731 166.95 73.4946 166.988 73.5065 167.03C73.5183 167.071 73.5203 167.115 73.5121 167.157L71.8711 175.628C71.8557 175.707 71.8059 175.777 71.7329 175.823C71.6768 175.858 71.6101 175.877 71.5418 175.877V175.877ZM65.6519 174.295L71.2705 175.224L72.7889 167.386C72.0731 167.343 70.4824 167.215 69.1454 166.897L65.6519 174.295Z" fill="#242D35"/>
<path d="M67.3787 165.992C67.8752 166.197 68.4018 166.379 68.9535 166.535C68.9535 166.535 67.5141 173.56 66.598 177.278C64.7223 177.278 60.6432 176.268 56.6712 174.103C51.6375 171.364 46.7761 166.772 46.7761 160.042C46.7761 148.001 59.4011 139.649 64.6571 136.947L65.2873 138.113L72.1582 150.834C70.7422 151.214 69.47 151.702 68.3466 152.261C64.2241 154.316 62.0843 157.374 62.0843 159.925C62.0843 162.282 64.1054 164.639 67.3787 165.99V165.992Z" fill="url(#paint15_linear_2016_13131)"/>
<path d="M65.2873 138.113C64.8125 138.315 64.3261 138.498 63.8714 138.73C61.337 140.029 60.0548 142.752 57.6057 144.176C56.7798 144.655 55.8236 144.986 55.1566 145.636C54.5882 146.187 54.2873 146.912 53.8727 147.565C53.0836 148.804 51.8816 149.784 50.9889 150.964C49.6381 152.746 49.0497 154.895 48.4846 156.992C48.0701 158.537 47.6521 160.145 48.0199 161.699C48.3843 163.237 49.486 164.572 49.8304 166.114C49.9307 166.56 49.9792 167.046 50.2968 167.399C50.5509 167.68 50.9337 167.831 51.2882 167.998C53.8911 169.226 55.404 171.674 56.6712 174.103C51.6375 171.364 46.7761 166.772 46.7761 160.042C46.7761 148.001 59.4011 139.649 64.6571 136.947L65.2873 138.113Z" fill="white"/>
<path d="M66.598 177.58C64.464 177.58 59.424 176.29 54.8999 173.423C51.0412 170.978 46.4416 166.671 46.4416 160.042C46.4416 154.748 48.8143 149.618 53.4938 144.794C57.7824 140.373 62.6135 137.65 64.4914 136.685C64.5682 136.648 64.6578 136.64 64.7411 136.662C64.8244 136.684 64.895 136.734 64.938 136.802C64.981 136.871 64.993 136.951 64.9714 137.027C64.9499 137.103 64.8965 137.168 64.8226 137.209C63.0096 138.141 47.1105 146.699 47.1105 160.042C47.1105 166.412 51.5554 170.566 55.2844 172.929C59.5078 175.606 64.152 176.871 66.3311 176.97C67.1356 173.662 68.3081 168.015 68.5711 166.74C68.1183 166.603 67.6739 166.445 67.2396 166.266C67.2294 166.262 67.2194 166.257 67.2098 166.252C63.8411 164.852 61.7499 162.43 61.7499 159.924C61.7499 157.057 64.2757 153.945 68.1849 151.997C69.372 151.406 70.6767 150.917 72.0627 150.545C72.1049 150.533 72.1492 150.529 72.1931 150.533C72.237 150.537 72.2796 150.549 72.3185 150.568C72.3574 150.587 72.3917 150.612 72.4196 150.643C72.4474 150.674 72.4682 150.709 72.4808 150.748C72.4934 150.786 72.4975 150.826 72.4928 150.865C72.4882 150.905 72.4749 150.943 72.4537 150.978C72.4326 151.013 72.404 151.044 72.3696 151.069C72.3352 151.094 72.2957 151.112 72.2533 151.123C70.9131 151.483 69.6531 151.955 68.5081 152.525C64.8089 154.369 62.4184 157.273 62.4184 159.924C62.4184 162.198 64.3724 164.417 67.5176 165.716C67.5276 165.72 67.5373 165.725 67.5467 165.73C68.0365 165.93 68.5395 166.103 69.0529 166.247C69.131 166.269 69.1974 166.316 69.2396 166.379C69.2819 166.442 69.297 166.517 69.2821 166.59C69.2677 166.66 67.831 173.663 66.9243 177.344C66.9078 177.411 66.8664 177.471 66.8071 177.514C66.7478 177.557 66.674 177.58 66.598 177.58Z" fill="#242D35"/>
<path d="M67.3787 165.99V165.992C63.9599 165.316 61.9338 163.286 61.0377 162.797C59.9912 162.227 60.1216 164.489 59.249 164.489C58.3763 164.489 57.9082 163.697 58.2459 161.931C58.6823 159.649 62.3885 154.729 68.3466 152.261C64.2241 154.316 62.0842 157.374 62.0842 159.925C62.0842 162.282 64.1054 164.639 67.3787 165.99Z" fill="#242D35"/>
<path d="M67.3787 166.294C67.3548 166.294 67.3309 166.291 67.3071 166.287C64.6036 165.752 62.7459 164.395 61.6359 163.584C61.323 163.355 61.0528 163.158 60.8647 163.055C60.7783 163.008 60.73 163.003 60.7161 163.008C60.5902 163.048 60.4289 163.441 60.3326 163.677C60.1293 164.173 59.8764 164.791 59.2488 164.791C58.8387 164.791 58.4904 164.65 58.2416 164.384C57.7989 163.909 57.6894 163.067 57.9164 161.88C58.3941 159.381 62.3337 154.42 68.2072 151.987C68.2858 151.955 68.3752 151.951 68.4566 151.977C68.5381 152.003 68.6053 152.056 68.6442 152.126C68.6831 152.195 68.6907 152.276 68.6654 152.35C68.64 152.425 68.5837 152.488 68.5083 152.525C64.809 154.369 62.4186 157.273 62.4186 159.925C62.4186 162.198 64.3725 164.417 67.5179 165.716C67.5762 165.74 67.6256 165.779 67.6602 165.827C67.6948 165.876 67.7132 165.933 67.7132 165.99V165.992C67.7131 166.072 67.6778 166.149 67.6152 166.205C67.5525 166.262 67.4675 166.294 67.3788 166.294H67.3787ZM60.728 162.403C60.883 162.403 61.0444 162.448 61.2106 162.538C61.438 162.662 61.7111 162.862 62.057 163.115C62.6197 163.526 63.383 164.083 64.3543 164.592C62.7013 163.266 61.7499 161.614 61.7499 159.925C61.7499 158.358 62.5037 156.719 63.8252 155.236C60.6223 157.706 58.8411 160.593 58.5754 161.982C58.324 163.298 58.579 163.808 58.7532 163.995C58.8744 164.125 59.0363 164.188 59.249 164.188C59.4108 164.188 59.5882 163.754 59.7055 163.468C59.8858 163.027 60.0722 162.572 60.4953 162.438C60.5701 162.415 60.6488 162.403 60.7281 162.403L60.728 162.403ZM78.6002 170.637C78.5285 170.637 78.463 170.636 78.4036 170.634C78.315 170.631 78.2313 170.596 78.171 170.537C78.1107 170.479 78.0786 170.401 78.0818 170.321C78.0832 170.281 78.0933 170.242 78.1115 170.206C78.1297 170.17 78.1557 170.137 78.1879 170.11C78.2202 170.083 78.258 170.062 78.2993 170.049C78.3406 170.035 78.3844 170.029 78.4284 170.03C79.5919 170.074 83.6101 169.68 85.1334 169.045C85.1733 169.028 85.2164 169.019 85.2602 169.017C85.3041 169.016 85.3479 169.022 85.3891 169.035C85.4303 169.049 85.4681 169.07 85.5004 169.097C85.5326 169.124 85.5587 169.156 85.5771 169.192C85.5955 169.228 85.6059 169.267 85.6077 169.307C85.6094 169.346 85.6025 169.386 85.5874 169.423C85.5722 169.46 85.5491 169.494 85.5193 169.523C85.4895 169.552 85.4536 169.576 85.4138 169.593C83.856 170.242 80.0366 170.637 78.5999 170.637H78.6002ZM95.6789 162.674C95.6132 162.674 95.549 162.657 95.4943 162.624C95.4395 162.591 95.3966 162.545 95.371 162.49C95.1256 161.969 95.1538 160.807 95.1864 159.461C95.214 158.326 95.2424 157.152 95.0784 156.576C94.8404 155.737 93.5485 154.073 92.5101 152.736C92.0419 152.133 91.5997 151.563 91.2819 151.11C90.7123 150.296 90.4688 148.93 90.2107 147.485C89.9775 146.178 89.7362 144.826 89.2477 143.981C88.6986 143.031 87.4867 142.232 86.3148 141.459C85.336 140.814 84.4114 140.204 83.8427 139.505C83.4027 138.964 83.303 138.344 83.1977 137.687C82.9897 136.393 82.754 134.925 79.6631 133.543C79.4976 133.469 79.4299 133.288 79.512 133.139C79.5941 132.99 79.7945 132.928 79.96 133.003C83.3654 134.525 83.6394 136.23 83.8595 137.601C83.9567 138.206 84.0406 138.728 84.3818 139.148C84.8895 139.772 85.7735 140.355 86.7094 140.972C87.9434 141.786 89.2193 142.627 89.8407 143.702C90.3793 144.634 90.6293 146.034 90.8708 147.389C91.1069 148.711 91.3508 150.078 91.8475 150.787C92.1566 151.229 92.5944 151.793 93.0578 152.39C94.1827 153.839 95.4579 155.481 95.7262 156.426C95.9128 157.083 95.8834 158.298 95.855 159.474C95.828 160.589 95.7975 161.852 95.9865 162.255C96.0082 162.3 96.0169 162.35 96.0118 162.4C96.0068 162.45 95.9883 162.497 95.9578 162.539C95.9273 162.581 95.8859 162.615 95.8372 162.638C95.7886 162.662 95.7342 162.674 95.6789 162.674V162.674ZM68.1896 121.464C68.1399 121.464 68.0908 121.454 68.0459 121.435C68.001 121.416 67.9614 121.388 67.93 121.353C67.6141 121.002 67.5748 120.549 67.8275 120.171C68.0679 119.81 68.5186 119.62 68.9474 119.696C68.9905 119.704 69.0315 119.719 69.068 119.741C69.1045 119.763 69.1359 119.792 69.1603 119.825C69.1847 119.858 69.2017 119.895 69.2103 119.933C69.2189 119.972 69.2189 120.012 69.2104 120.051C69.2019 120.09 69.1849 120.127 69.1605 120.16C69.1362 120.193 69.1048 120.221 69.0683 120.243C69.0319 120.265 68.9909 120.281 68.9478 120.288C68.9048 120.296 68.8604 120.296 68.8174 120.288C68.6395 120.255 68.4797 120.362 68.4003 120.482C68.35 120.557 68.254 120.756 68.4488 120.972C68.4885 121.016 68.5135 121.07 68.521 121.126C68.5285 121.183 68.518 121.24 68.4909 121.292C68.4638 121.343 68.4211 121.386 68.3678 121.417C68.3144 121.447 68.2526 121.464 68.1895 121.464L68.1896 121.464Z" fill="#242D35"/>
</g>
<g clip-path="url(#clip6_2016_13131)">
<path d="M52.8138 100.827H77.7547C79.1869 97.5222 72.6627 95.1616 69.4802 98.3719C69.2681 93.7452 64.0699 91.6208 60.5161 91.6208C55.8484 91.6208 50.8095 95.3032 52.8138 100.827Z" fill="white"/>
</g>
<defs>
<linearGradient id="paint0_linear_2016_13131" x1="225.005" y1="60.9841" x2="125.849" y2="221.716" gradientUnits="userSpaceOnUse">
<stop stop-color="#2F51FF"/>
<stop offset="1" stop-color="#0E33F3"/>
</linearGradient>
<linearGradient id="paint1_linear_2016_13131" x1="222.236" y1="76.8303" x2="56.1323" y2="277.202" gradientUnits="userSpaceOnUse">
<stop stop-color="#2F51FF"/>
<stop offset="1" stop-color="#0E33F3"/>
</linearGradient>
<linearGradient id="paint2_linear_2016_13131" x1="189.875" y1="74.7176" x2="160.614" y2="130.622" gradientUnits="userSpaceOnUse">
<stop stop-color="#2F51FF"/>
<stop offset="1" stop-color="#0E33F3"/>
</linearGradient>
<linearGradient id="paint3_linear_2016_13131" x1="69.1489" y1="240.4" x2="61.4681" y2="252.905" gradientUnits="userSpaceOnUse">
<stop stop-color="#2F51FF"/>
<stop offset="1" stop-color="#0E33F3"/>
</linearGradient>
<linearGradient id="paint4_linear_2016_13131" x1="139.013" y1="206.006" x2="133.163" y2="216.268" gradientUnits="userSpaceOnUse">
<stop stop-color="#2F51FF"/>
<stop offset="1" stop-color="#0E33F3"/>
</linearGradient>
<linearGradient id="paint5_linear_2016_13131" x1="78.7462" y1="164.806" x2="75.9087" y2="169.796" gradientUnits="userSpaceOnUse">
<stop stop-color="#2F51FF"/>
<stop offset="1" stop-color="#0E33F3"/>
</linearGradient>
<linearGradient id="paint6_linear_2016_13131" x1="149.601" y1="124.343" x2="139.791" y2="138.321" gradientUnits="userSpaceOnUse">
<stop stop-color="#2F51FF"/>
<stop offset="1" stop-color="#0E33F3"/>
</linearGradient>
<linearGradient id="paint7_linear_2016_13131" x1="81.4709" y1="112.499" x2="61.9535" y2="128.365" gradientUnits="userSpaceOnUse">
<stop stop-color="#2F51FF"/>
<stop offset="1" stop-color="#0E33F3"/>
</linearGradient>
<linearGradient id="paint8_linear_2016_13131" x1="145.067" y1="161.223" x2="68.1082" y2="251.588" gradientUnits="userSpaceOnUse">
<stop stop-color="#2F51FF"/>
<stop offset="1" stop-color="#0E33F3"/>
</linearGradient>
<linearGradient id="paint9_linear_2016_13131" x1="107.909" y1="159.507" x2="102.756" y2="176.546" gradientUnits="userSpaceOnUse">
<stop stop-color="#2F51FF"/>
<stop offset="1" stop-color="#0E33F3"/>
</linearGradient>
<linearGradient id="paint10_linear_2016_13131" x1="92.3712" y1="133.657" x2="56.1955" y2="166.177" gradientUnits="userSpaceOnUse">
<stop stop-color="#2F51FF"/>
<stop offset="1" stop-color="#0E33F3"/>
</linearGradient>
<linearGradient id="paint11_linear_2016_13131" x1="84.2064" y1="133.657" x2="72.1413" y2="148.112" gradientUnits="userSpaceOnUse">
<stop stop-color="#2F51FF"/>
<stop offset="1" stop-color="#0E33F3"/>
</linearGradient>
<linearGradient id="paint12_linear_2016_13131" x1="137.508" y1="131.243" x2="109.472" y2="181.053" gradientUnits="userSpaceOnUse">
<stop stop-color="#2F51FF"/>
<stop offset="1" stop-color="#0E33F3"/>
</linearGradient>
<linearGradient id="paint13_linear_2016_13131" x1="94.0948" y1="131.886" x2="84.1028" y2="144.494" gradientUnits="userSpaceOnUse">
<stop stop-color="#2F51FF"/>
<stop offset="1" stop-color="#0E33F3"/>
</linearGradient>
<linearGradient id="paint14_linear_2016_13131" x1="86.0212" y1="165.679" x2="78.3703" y2="178.865" gradientUnits="userSpaceOnUse">
<stop stop-color="#2F51FF"/>
<stop offset="1" stop-color="#0E33F3"/>
</linearGradient>
<linearGradient id="paint15_linear_2016_13131" x1="72.1582" y1="136.947" x2="36.075" y2="161.643" gradientUnits="userSpaceOnUse">
<stop stop-color="#2F51FF"/>
<stop offset="1" stop-color="#0E33F3"/>
</linearGradient>
<clipPath id="clip0_2016_13131">
<rect width="172.309" height="115.604" fill="white" transform="translate(52.6964 60.9841)"/>
</clipPath>
<clipPath id="clip1_2016_13131">
<rect width="60.0572" height="17.2048" fill="white" transform="translate(167.959 123.465)"/>
</clipPath>
<clipPath id="clip2_2016_13131">
<rect width="216.139" height="176.726" fill="white" transform="translate(16.2271 76.5289)"/>
</clipPath>
<clipPath id="clip3_2016_13131">
<rect width="62.2319" height="17.6576" fill="white" transform="translate(92.1769 70.1902)"/>
</clipPath>
<clipPath id="clip4_2016_13131">
<rect width="67.4179" height="88.7405" fill="white" transform="translate(122.791 74.416)"/>
</clipPath>
<clipPath id="clip5_2016_13131">
<rect width="111.415" height="145.184" fill="white" transform="translate(41.1534 108.071)"/>
</clipPath>
<clipPath id="clip6_2016_13131">
<rect width="25.5954" height="9.20607" fill="white" transform="translate(52.3618 91.6208)"/>
</clipPath>
</defs>
</svg>
